<svg width="166" height="54" viewBox="0 0 166 54" fill="none" xmlns="http://www.w3.org/2000/svg">
<path d="M79.9086 3.14014H77.8486L72.5586 20.9401L67.2586 3.14014H65.1786H62.6586H60.8086V29.1601H65.8586V20.3001L65.5586 12.6401L70.5986 29.1601H74.5086L79.5986 11.2501L79.2586 20.3001V29.1601H84.2986V3.14014H81.9086H79.9086Z" fill="#ED1C24"/>
<path d="M99.25 11.85C98.64 11.06 97.88 10.46 96.95 10.06C96.03 9.65996 94.96 9.45996 93.74 9.45996C92.52 9.45996 91.44 9.65996 90.48 10.06C89.52 10.46 88.71 11.06 88.06 11.87C87.4 12.68 86.9 13.68 86.54 14.86C86.18 16.05 86 17.42 86 19V20.59C86 22 86.18 23.25 86.55 24.34C86.92 25.44 87.46 26.37 88.16 27.14C88.86 27.91 89.72 28.5 90.74 28.9C91.76 29.3 92.93 29.51 94.25 29.51C95.36 29.51 96.33 29.37 97.18 29.08C98.03 28.79 98.75 28.43 99.36 27.97C99.97 27.52 100.44 27.06 100.79 26.61L98.79 23.57C98.29 24.12 97.68 24.55 96.98 24.87C96.27 25.19 95.48 25.34 94.59 25.34C94.01 25.34 93.49 25.26 93.05 25.1C92.61 24.94 92.24 24.67 91.93 24.3C91.62 23.93 91.4 23.44 91.24 22.83C91.12 22.36 91.05 21.79 91.02 21.14H101.07V18.85C101.07 17.3 100.92 15.94 100.61 14.78C100.3 13.61 99.84 12.63 99.23 11.84L99.25 11.85ZM96.18 17.64H91.07C91.09 17.25 91.13 16.89 91.17 16.56C91.27 15.88 91.41 15.32 91.62 14.89C91.82 14.46 92.1 14.15 92.44 13.94C92.79 13.74 93.21 13.64 93.71 13.64C94.31 13.64 94.78 13.77 95.14 14.03C95.5 14.29 95.76 14.69 95.93 15.22C96.1 15.75 96.18 16.41 96.18 17.19V17.64Z" fill="#ED1C24"/>
<path d="M111.52 11.42C111.13 10.91 110.69 10.48 110.19 10.16C109.49 9.69996 108.69 9.46996 107.77 9.46996C106.76 9.46996 105.86 9.65996 105.08 10.05C104.3 10.44 103.64 11.02 103.11 11.81C102.57 12.6 102.17 13.58 101.9 14.76C101.63 15.94 101.5 17.32 101.5 18.89V20.18C101.5 21.69 101.63 23.03 101.9 24.19C102.17 25.35 102.57 26.33 103.1 27.12C103.63 27.91 104.29 28.51 105.07 28.92C105.85 29.32 106.75 29.53 107.76 29.53C108.68 29.53 109.48 29.3 110.17 28.84C110.79 28.43 111.32 27.87 111.78 27.18L112.01 29.19L116.55 29.17V1.70996H111.53V11.42H111.52ZM110.82 24.79C110.4 25.13 109.86 25.3 109.19 25.3C108.68 25.3 108.25 25.2 107.9 25.01C107.55 24.81 107.28 24.51 107.07 24.1C106.86 23.69 106.71 23.16 106.62 22.51C106.53 21.86 106.49 21.08 106.49 20.18V18.89C106.49 17.97 106.54 17.18 106.64 16.52C106.74 15.86 106.89 15.32 107.1 14.89C107.3 14.47 107.58 14.15 107.93 13.95C108.28 13.75 108.71 13.65 109.21 13.65C109.67 13.65 110.08 13.75 110.43 13.95C110.78 14.15 111.08 14.44 111.31 14.81C111.38 14.92 111.45 15.04 111.51 15.16V23.92C111.32 24.27 111.09 24.56 110.81 24.79H110.82Z" fill="#ED1C24"/>
<path d="M123.947 1.70996H118.707V29.16H122.337H123.947H133.147V24.84H123.947V1.70996Z" fill="#ED1C24"/>
<path d="M146.918 11.85C146.308 11.06 145.548 10.46 144.618 10.06C143.698 9.65996 142.628 9.45996 141.408 9.45996C140.188 9.45996 139.108 9.65996 138.148 10.06C137.188 10.46 136.378 11.06 135.728 11.87C135.068 12.68 134.568 13.68 134.208 14.86C133.848 16.05 133.668 17.42 133.668 19V20.59C133.668 22 133.848 23.25 134.218 24.34C134.588 25.44 135.128 26.37 135.828 27.14C136.528 27.91 137.388 28.5 138.408 28.9C139.428 29.3 140.598 29.51 141.918 29.51C143.028 29.51 143.998 29.37 144.848 29.08C145.698 28.79 146.418 28.43 147.028 27.97C147.638 27.52 148.108 27.06 148.458 26.61L146.458 23.57C145.958 24.12 145.348 24.55 144.648 24.87C143.938 25.19 143.148 25.34 142.258 25.34C141.678 25.34 141.158 25.26 140.718 25.1C140.278 24.94 139.908 24.67 139.598 24.3C139.288 23.93 139.068 23.44 138.908 22.83C138.788 22.36 138.718 21.79 138.688 21.14H148.738V18.85C148.738 17.3 148.588 15.94 148.278 14.78C147.968 13.61 147.508 12.63 146.898 11.84L146.918 11.85ZM143.848 17.64H138.738C138.758 17.25 138.798 16.89 138.838 16.56C138.938 15.88 139.078 15.32 139.288 14.89C139.488 14.46 139.768 14.15 140.108 13.94C140.458 13.74 140.878 13.64 141.378 13.64C141.978 13.64 142.448 13.77 142.808 14.03C143.168 14.29 143.428 14.69 143.598 15.22C143.768 15.75 143.848 16.41 143.848 17.19V17.64Z" fill="#ED1C24"/>
<path d="M164.508 14.79C164.268 13.62 163.888 12.64 163.378 11.85C162.868 11.06 162.228 10.47 161.438 10.07C160.648 9.66996 159.708 9.46996 158.618 9.46996C157.668 9.46996 156.838 9.69996 156.148 10.16C155.648 10.49 155.218 10.91 154.838 11.42V1.70996H149.848V29.16H154.478L154.628 27.23C155.058 27.9 155.568 28.44 156.168 28.83C156.858 29.29 157.688 29.52 158.648 29.52C159.718 29.52 160.648 29.32 161.438 28.93C162.228 28.54 162.868 27.95 163.378 27.16C163.888 26.37 164.258 25.4 164.508 24.23C164.748 23.06 164.878 21.69 164.878 20.12V18.85C164.878 17.31 164.758 15.96 164.508 14.78V14.79ZM159.888 20.12C159.888 21.06 159.858 21.86 159.788 22.52C159.718 23.18 159.588 23.72 159.398 24.14C159.198 24.56 158.928 24.86 158.588 25.05C158.238 25.24 157.788 25.34 157.228 25.34C156.518 25.34 155.948 25.17 155.518 24.82C155.238 24.59 155.008 24.29 154.828 23.93V15.14C154.888 15.03 154.948 14.91 155.018 14.81C155.258 14.43 155.558 14.15 155.898 13.95C156.248 13.75 156.668 13.66 157.188 13.66C157.758 13.66 158.218 13.77 158.568 13.98C158.918 14.19 159.188 14.52 159.378 14.94C159.568 15.37 159.698 15.9 159.768 16.55C159.838 17.19 159.878 17.96 159.878 18.86V20.13L159.888 20.12Z" fill="#ED1C24"/>
<path d="M9.60891 2.25977H41.1589C45.8389 2.25977 49.6489 6.05977 49.6489 10.7498V50.7898H1.12891V10.7498C1.12891 6.05977 4.92891 2.25977 9.60891 2.25977Z" fill="#ED1C24"/>
<path d="M9.60891 2.25977H41.1589C45.8389 2.25977 49.6489 6.05977 49.6489 10.7498V50.7898H1.12891V10.7498C1.12891 6.05977 4.92891 2.25977 9.60891 2.25977Z" stroke="#ED1C24" stroke-width="1.7" stroke-miterlimit="10"/>
<path d="M49.6589 26.5195H1.12891V50.7795H49.6589V26.5195Z" fill="white"/>
<path d="M10.8359 14.5797L10.8359 38.8497C10.8359 41.5283 13.0074 43.6997 15.6859 43.6997H15.6959C18.3745 43.6997 20.5459 41.5283 20.5459 38.8497V14.5797C20.5459 11.9011 18.3745 9.72971 15.6959 9.72971H15.6859C13.0074 9.72971 10.8359 11.9011 10.8359 14.5797Z" fill="white"/>
<path d="M15.697 44.3398C12.667 44.3398 10.207 41.8798 10.207 38.8498V14.5798C10.207 11.5498 12.667 9.08984 15.697 9.08984C18.727 9.08984 21.187 11.5498 21.187 14.5798V38.8398C21.187 41.8698 18.727 44.3298 15.697 44.3298V44.3398ZM15.697 10.3698C13.377 10.3698 11.477 12.2598 11.477 14.5898V38.8498C11.477 41.1698 13.367 43.0698 15.697 43.0698C18.027 43.0698 19.917 41.1798 19.917 38.8498V14.5798C19.917 12.2598 18.027 10.3598 15.697 10.3598V10.3698Z" fill="#121212"/>
<path d="M31.3008 14.5797L31.3008 38.8497C31.3008 41.5283 33.4722 43.6997 36.1508 43.6997H36.1608C38.8394 43.6997 41.0108 41.5283 41.0108 38.8497V14.5797C41.0108 11.9011 38.8394 9.72971 36.1608 9.72971H36.1508C33.4722 9.72971 31.3008 11.9011 31.3008 14.5797Z" fill="white"/>
<path d="M36.1502 44.3398C33.1202 44.3398 30.6602 41.8798 30.6602 38.8498V14.5798C30.6602 11.5498 33.1202 9.08984 36.1502 9.08984C39.1802 9.08984 41.6402 11.5498 41.6402 14.5798V38.8398C41.6402 41.8698 39.1802 44.3298 36.1502 44.3298V44.3398ZM36.1502 10.3698C33.8302 10.3698 31.9302 12.2598 31.9302 14.5898V38.8498C31.9302 41.1698 33.8202 43.0698 36.1502 43.0698C38.4802 43.0698 40.3702 41.1798 40.3702 38.8498V14.5798C40.3702 12.2598 38.4802 10.3598 36.1502 10.3598V10.3698Z" fill="#121212"/>
<path d="M33.3108 26.5195V38.6495C33.3108 41.3295 35.4808 43.4995 38.1608 43.4995C40.8408 43.4995 43.0108 41.3295 43.0108 38.6495V26.5195H33.3008H33.3108Z" fill="#00A54F"/>
<path d="M12.8498 38.6598C12.8498 41.3398 15.0198 43.5098 17.6998 43.5098C20.3798 43.5098 22.5498 41.3398 22.5498 38.6598V26.5298H12.8398V38.6598H12.8498Z" fill="#00A54F"/>
<path d="M63.7178 44.0907H60.6855V43.0507H63.7178C64.3447 43.0507 64.8516 42.9159 65.2383 42.6462C65.625 42.3702 65.9062 42.001 66.082 41.5388C66.2637 41.0701 66.3545 40.5469 66.3545 39.9691C66.3545 39.4041 66.2637 38.8809 66.082 38.3994C65.9062 37.9179 65.625 37.5327 65.2383 37.2438C64.8516 36.9485 64.3447 36.8008 63.7178 36.8008H61.0107V49.7917H60V35.7704H63.7178C64.5088 35.7704 65.1738 35.947 65.7129 36.3001C66.2578 36.6532 66.668 37.1443 66.9434 37.7734C67.2246 38.4026 67.3652 39.1313 67.3652 39.9595C67.3652 40.8197 67.2246 41.5612 66.9434 42.184C66.668 42.8003 66.2578 43.2722 65.7129 43.5996C65.1738 43.927 64.5088 44.0907 63.7178 44.0907Z" fill="#121212"/>
<path d="M69.0146 35V49.7917H68.0391V35H69.0146ZM68.7949 43.9366L68.3643 43.6574C68.3877 43.0411 68.4785 42.4633 68.6367 41.924C68.8008 41.3847 69.0234 40.9096 69.3047 40.4987C69.5859 40.0814 69.917 39.7572 70.2979 39.5261C70.6787 39.295 71.1006 39.1794 71.5635 39.1794C71.9561 39.1794 72.3105 39.25 72.627 39.3913C72.9434 39.5325 73.21 39.754 73.4268 40.0558C73.6494 40.3575 73.8193 40.7523 73.9365 41.2402C74.0537 41.7282 74.1123 42.3156 74.1123 43.0025V49.7917H73.1367V42.9929C73.1367 42.2803 73.0635 41.7217 72.917 41.3173C72.7705 40.9128 72.5596 40.6271 72.2842 40.4602C72.0146 40.2869 71.6895 40.2002 71.3086 40.2002C70.9043 40.2002 70.5469 40.319 70.2363 40.5565C69.9316 40.7941 69.6709 41.1022 69.4541 41.481C69.2432 41.8598 69.082 42.2674 68.9707 42.704C68.8594 43.1341 68.8008 43.545 68.7949 43.9366Z" fill="#121212"/>
<path d="M80.123 47.9235V42.2514C80.123 41.7635 80.0469 41.3686 79.8945 41.0669C79.7422 40.7587 79.5195 40.534 79.2266 40.3928C78.9336 40.2516 78.5732 40.1809 78.1455 40.1809C77.7412 40.1809 77.3809 40.2708 77.0645 40.4506C76.7539 40.6239 76.5107 40.8679 76.335 41.1825C76.165 41.4906 76.0801 41.8469 76.0801 42.2514L75.1045 42.2418C75.1045 41.8437 75.1777 41.4617 75.3242 41.0958C75.4707 40.7234 75.6787 40.396 75.9482 40.1135C76.2178 39.8246 76.54 39.5967 76.915 39.4298C77.2959 39.2629 77.7178 39.1794 78.1807 39.1794C78.749 39.1794 79.2529 39.2789 79.6924 39.478C80.1318 39.677 80.4746 40.0044 80.7207 40.4602C80.9727 40.916 81.0986 41.5195 81.0986 42.2707V47.596C81.0986 47.962 81.1191 48.3376 81.1602 48.7228C81.207 49.108 81.2686 49.4225 81.3447 49.6665V49.7917H80.3076C80.2432 49.567 80.1963 49.2813 80.167 48.9346C80.1377 48.5815 80.123 48.2445 80.123 47.9235ZM80.3252 43.7055L80.3516 44.6204H78.6641C78.207 44.6204 77.8057 44.6749 77.46 44.7841C77.1143 44.8932 76.8242 45.0505 76.5898 45.256C76.3613 45.4614 76.1885 45.7054 76.0713 45.9878C75.9541 46.2703 75.8955 46.5913 75.8955 46.9508C75.8955 47.4131 75.9629 47.7919 76.0977 48.0872C76.2324 48.3761 76.4287 48.5911 76.6865 48.7324C76.9502 48.8672 77.2637 48.9346 77.627 48.9346C78.1074 48.9346 78.5293 48.8319 78.8926 48.6265C79.2617 48.4146 79.5635 48.1353 79.7979 47.7886C80.0322 47.4355 80.1846 47.0632 80.2549 46.6716L80.5186 47.3264C80.46 47.6217 80.3516 47.9235 80.1934 48.2316C80.0352 48.5398 79.8301 48.8287 79.5781 49.0983C79.3262 49.3615 79.0273 49.5766 78.6816 49.7435C78.3359 49.9105 77.9463 49.9939 77.5127 49.9939C76.9912 49.9939 76.5342 49.8848 76.1416 49.6665C75.7549 49.4482 75.4531 49.1176 75.2363 48.6746C75.0254 48.2316 74.9199 47.6859 74.9199 47.0375C74.9199 46.556 74.9932 46.113 75.1396 45.7086C75.292 45.3041 75.5176 44.9542 75.8164 44.6589C76.1152 44.3572 76.4902 44.1228 76.9414 43.9559C77.3926 43.789 77.917 43.7055 78.5146 43.7055H80.3252Z" fill="#121212"/>
<path d="M83.5146 41.0862V49.7917H82.5391V39.372H83.4883L83.5146 41.0862ZM86.2832 39.3046L86.2568 40.3735C86.1514 40.3479 86.0518 40.3318 85.958 40.3254C85.8643 40.3126 85.7617 40.3061 85.6504 40.3061C85.2812 40.3061 84.959 40.396 84.6836 40.5758C84.4082 40.7555 84.1738 41.0091 83.9805 41.3365C83.793 41.6575 83.6465 42.0331 83.541 42.4633C83.4414 42.887 83.3828 43.346 83.3652 43.8403L83.0225 44.0041C83.0225 43.33 83.0752 42.7008 83.1807 42.1166C83.2861 41.5324 83.4473 41.0188 83.6641 40.5758C83.8867 40.1328 84.165 39.7893 84.499 39.5454C84.8389 39.3014 85.2373 39.1794 85.6943 39.1794C85.7998 39.1794 85.9082 39.1923 86.0195 39.2179C86.1367 39.2372 86.2246 39.2661 86.2832 39.3046Z" fill="#121212"/>
<path d="M87.7295 41.5099V49.7917H86.7451V39.372H87.6855L87.7295 41.5099ZM87.5449 43.9366L87.0791 43.6574C87.1025 43.0411 87.1875 42.4633 87.334 41.924C87.4863 41.3847 87.6943 40.9096 87.958 40.4987C88.2275 40.0814 88.5557 39.7572 88.9424 39.5261C89.3291 39.295 89.7686 39.1794 90.2607 39.1794C90.6475 39.1794 90.9961 39.25 91.3066 39.3913C91.623 39.5261 91.8955 39.7412 92.124 40.0365C92.3525 40.3254 92.5283 40.7042 92.6514 41.1728C92.7744 41.6351 92.8359 42.1968 92.8359 42.8581V49.7917H91.8604V42.8966C91.8604 42.2097 91.7783 41.6704 91.6143 41.2788C91.4561 40.8871 91.2334 40.6111 90.9463 40.4506C90.665 40.2837 90.334 40.2002 89.9531 40.2002C89.5137 40.2002 89.1416 40.319 88.8369 40.5565C88.5322 40.7941 88.2861 41.1022 88.0986 41.481C87.917 41.8598 87.7822 42.2674 87.6943 42.704C87.6064 43.1341 87.5566 43.545 87.5449 43.9366ZM92.8271 43.0314L92.168 43.0699C92.1914 42.5628 92.2793 42.0781 92.4316 41.6158C92.584 41.1472 92.7949 40.7331 93.0645 40.3735C93.334 40.0076 93.6562 39.7187 94.0312 39.5068C94.4121 39.2886 94.8428 39.1794 95.3232 39.1794C95.7393 39.1794 96.1113 39.2533 96.4395 39.4009C96.7676 39.5422 97.043 39.7669 97.2656 40.075C97.4941 40.3832 97.667 40.778 97.7842 41.2595C97.9014 41.741 97.96 42.3188 97.96 42.9929V49.7917H96.9756V42.9833C96.9756 42.2578 96.8936 41.6929 96.7295 41.2884C96.5713 40.8839 96.3486 40.6015 96.0615 40.441C95.7803 40.274 95.4521 40.1938 95.0771 40.2002C94.708 40.2002 94.3828 40.2901 94.1016 40.4698C93.8262 40.6496 93.5947 40.8807 93.4072 41.1632C93.2256 41.4393 93.085 41.7442 92.9854 42.0781C92.8916 42.4055 92.8389 42.7233 92.8271 43.0314Z" fill="#121212"/>
<path d="M103.873 47.9235V42.2514C103.873 41.7635 103.797 41.3686 103.645 41.0669C103.492 40.7587 103.27 40.534 102.977 40.3928C102.684 40.2516 102.323 40.1809 101.896 40.1809C101.491 40.1809 101.131 40.2708 100.814 40.4506C100.504 40.6239 100.261 40.8679 100.085 41.1825C99.915 41.4906 99.8301 41.8469 99.8301 42.2514L98.8545 42.2418C98.8545 41.8437 98.9277 41.4617 99.0742 41.0958C99.2207 40.7234 99.4287 40.396 99.6982 40.1135C99.9678 39.8246 100.29 39.5967 100.665 39.4298C101.046 39.2629 101.468 39.1794 101.931 39.1794C102.499 39.1794 103.003 39.2789 103.442 39.478C103.882 39.677 104.225 40.0044 104.471 40.4602C104.723 40.916 104.849 41.5195 104.849 42.2707V47.596C104.849 47.962 104.869 48.3376 104.91 48.7228C104.957 49.108 105.019 49.4225 105.095 49.6665V49.7917H104.058C103.993 49.567 103.946 49.2813 103.917 48.9346C103.888 48.5815 103.873 48.2445 103.873 47.9235ZM104.075 43.7055L104.102 44.6204H102.414C101.957 44.6204 101.556 44.6749 101.21 44.7841C100.864 44.8932 100.574 45.0505 100.34 45.256C100.111 45.4614 99.9385 45.7054 99.8213 45.9878C99.7041 46.2703 99.6455 46.5913 99.6455 46.9508C99.6455 47.4131 99.7129 47.7919 99.8477 48.0872C99.9824 48.3761 100.179 48.5911 100.437 48.7324C100.7 48.8672 101.014 48.9346 101.377 48.9346C101.857 48.9346 102.279 48.8319 102.643 48.6265C103.012 48.4146 103.313 48.1353 103.548 47.7886C103.782 47.4355 103.935 47.0632 104.005 46.6716L104.269 47.3264C104.21 47.6217 104.102 47.9235 103.943 48.2316C103.785 48.5398 103.58 48.8287 103.328 49.0983C103.076 49.3615 102.777 49.5766 102.432 49.7435C102.086 49.9105 101.696 49.9939 101.263 49.9939C100.741 49.9939 100.284 49.8848 99.8916 49.6665C99.5049 49.4482 99.2031 49.1176 98.9863 48.6746C98.7754 48.2316 98.6699 47.6859 98.6699 47.0375C98.6699 46.556 98.7432 46.113 98.8896 45.7086C99.042 45.3041 99.2676 44.9542 99.5664 44.6589C99.8652 44.3572 100.24 44.1228 100.691 43.9559C101.143 43.789 101.667 43.7055 102.265 43.7055H104.075Z" fill="#121212"/>
<path d="M109.286 48.9828C109.649 48.9828 109.989 48.9089 110.306 48.7613C110.628 48.6136 110.892 48.3632 111.097 48.0101C111.302 47.657 111.419 47.1723 111.448 46.556H112.38C112.356 47.3007 112.201 47.9299 111.914 48.4435C111.627 48.9507 111.255 49.3359 110.798 49.5991C110.341 49.8623 109.837 49.9939 109.286 49.9939C108.718 49.9939 108.22 49.8912 107.792 49.6858C107.364 49.4803 107.007 49.1754 106.72 48.7709C106.433 48.36 106.216 47.8561 106.069 47.259C105.923 46.6555 105.85 45.9589 105.85 45.1693V43.9848C105.85 43.2016 105.923 42.5114 106.069 41.9143C106.216 41.3109 106.433 40.8069 106.72 40.4024C107.007 39.998 107.364 39.693 107.792 39.4876C108.22 39.2821 108.718 39.1794 109.286 39.1794C109.866 39.1794 110.385 39.3142 110.842 39.5839C111.299 39.8471 111.662 40.2516 111.932 40.7973C112.207 41.343 112.356 42.0395 112.38 42.887H111.448C111.425 42.2386 111.313 41.7185 111.114 41.3269C110.921 40.9289 110.666 40.64 110.35 40.4602C110.033 40.274 109.679 40.1809 109.286 40.1809C108.835 40.1809 108.451 40.2676 108.135 40.441C107.824 40.6079 107.572 40.855 107.379 41.1825C107.186 41.5099 107.045 41.9079 106.957 42.3766C106.869 42.8452 106.825 43.3813 106.825 43.9848V45.1693C106.825 45.7792 106.869 46.3217 106.957 46.7968C107.045 47.2718 107.186 47.6731 107.379 48.0005C107.578 48.3215 107.833 48.5655 108.144 48.7324C108.46 48.8993 108.841 48.9828 109.286 48.9828Z" fill="#121212"/>
<path d="M115.886 48.742L118.329 39.372H119.375L116.026 51.4577C115.956 51.6952 115.865 51.9584 115.754 52.2473C115.648 52.5427 115.508 52.8219 115.332 53.0851C115.162 53.3548 114.948 53.5731 114.69 53.74C114.438 53.9133 114.131 54 113.768 54C113.674 54 113.551 53.9839 113.398 53.9519C113.246 53.9262 113.138 53.9005 113.073 53.8748L113.064 52.8925C113.117 52.9054 113.193 52.9182 113.293 52.9311C113.393 52.9439 113.463 52.9503 113.504 52.9503C113.82 52.9503 114.087 52.8797 114.304 52.7385C114.521 52.5972 114.702 52.3854 114.849 52.1029C115.001 51.8268 115.133 51.4834 115.244 51.0725L115.886 48.742ZM113.706 39.372L116.149 48.2894L116.413 49.5124L115.701 49.9939L112.634 39.372H113.706Z" fill="#121212"/>
<path d="M129.012 46.3249C129.012 45.9461 128.965 45.6091 128.871 45.3137C128.777 45.012 128.622 44.7424 128.405 44.5048C128.188 44.2673 127.893 44.0458 127.518 43.8403C127.148 43.6285 126.691 43.4198 126.146 43.2144C125.607 43.0154 125.121 42.7971 124.688 42.5596C124.26 42.322 123.891 42.0492 123.58 41.741C123.275 41.4328 123.041 41.0733 122.877 40.6624C122.719 40.2516 122.64 39.7701 122.64 39.2179C122.64 38.6722 122.728 38.1779 122.903 37.7349C123.085 37.2855 123.337 36.9003 123.659 36.5793C123.981 36.2583 124.362 36.0112 124.802 35.8378C125.241 35.6645 125.728 35.5778 126.261 35.5778C127.022 35.5778 127.679 35.7672 128.229 36.146C128.786 36.5183 129.214 37.0223 129.513 37.6579C129.812 38.287 129.961 38.99 129.961 39.7669H128.959C128.959 39.157 128.854 38.6145 128.643 38.1394C128.438 37.6643 128.133 37.2919 127.729 37.0223C127.33 36.7462 126.844 36.6082 126.27 36.6082C125.695 36.6082 125.212 36.727 124.819 36.9645C124.433 37.1956 124.143 37.507 123.949 37.8986C123.756 38.2838 123.659 38.7108 123.659 39.1794C123.659 39.5133 123.706 39.8214 123.8 40.1039C123.894 40.3864 124.049 40.6464 124.266 40.8839C124.488 41.1215 124.781 41.3462 125.145 41.558C125.508 41.7635 125.947 41.9561 126.463 42.1358C127.043 42.3413 127.553 42.5692 127.992 42.8196C128.438 43.0635 128.81 43.3524 129.108 43.6863C129.413 44.0137 129.642 44.3925 129.794 44.8226C129.952 45.2527 130.031 45.7471 130.031 46.3056C130.031 46.8834 129.94 47.4002 129.759 47.8561C129.577 48.3055 129.319 48.6907 128.985 49.0117C128.651 49.3262 128.259 49.567 127.808 49.7339C127.356 49.9008 126.858 49.9843 126.313 49.9843C125.839 49.9843 125.361 49.904 124.881 49.7435C124.406 49.583 123.973 49.3327 123.58 48.9924C123.193 48.6521 122.883 48.2156 122.648 47.6827C122.414 47.1499 122.297 46.5143 122.297 45.776H123.308C123.308 46.3602 123.396 46.8577 123.571 47.2686C123.753 47.6731 123.987 48.0005 124.274 48.2509C124.562 48.4948 124.884 48.6746 125.241 48.7902C125.599 48.8993 125.959 48.9539 126.322 48.9539C126.873 48.9539 127.348 48.8447 127.746 48.6265C128.15 48.4082 128.461 48.1032 128.678 47.7116C128.9 47.3136 129.012 46.8513 129.012 46.3249Z" fill="#121212"/>
<path d="M134.177 49.9939C133.649 49.9939 133.163 49.9008 132.718 49.7146C132.278 49.522 131.897 49.2331 131.575 48.8479C131.259 48.4563 131.013 47.9652 130.837 47.3746C130.661 46.7775 130.573 46.0745 130.573 45.2656V44.0618C130.573 43.2016 130.667 42.4633 130.854 41.8469C131.042 41.2242 131.294 40.717 131.61 40.3254C131.933 39.9274 132.299 39.6385 132.709 39.4587C133.119 39.2725 133.553 39.1794 134.01 39.1794C134.531 39.1794 134.988 39.2725 135.381 39.4587C135.779 39.6449 136.113 39.9274 136.383 40.3061C136.652 40.6849 136.854 41.1632 136.989 41.741C137.124 42.3124 137.191 42.9897 137.191 43.7729V44.6685H131.162V43.667H136.216V43.3974C136.204 42.7168 136.116 42.139 135.952 41.664C135.794 41.1825 135.554 40.8165 135.231 40.5661C134.915 40.3093 134.511 40.1809 134.019 40.1809C133.655 40.1809 133.321 40.2548 133.017 40.4024C132.712 40.5437 132.448 40.7684 132.226 41.0765C132.009 41.3847 131.842 41.7859 131.725 42.2803C131.613 42.7746 131.558 43.3685 131.558 44.0618V45.2656C131.558 45.9012 131.619 46.4533 131.742 46.9219C131.871 47.3842 132.053 47.7694 132.287 48.0775C132.521 48.3793 132.803 48.6072 133.131 48.7613C133.459 48.9089 133.822 48.9828 134.221 48.9828C134.713 48.9828 135.144 48.8929 135.513 48.7131C135.882 48.5269 136.21 48.2477 136.497 47.8753L137.016 48.5879C136.84 48.8383 136.623 49.0726 136.365 49.2909C136.107 49.5028 135.8 49.6729 135.442 49.8013C135.085 49.9297 134.663 49.9939 134.177 49.9939Z" fill="#121212"/>
<path d="M139.265 41.0862V49.7917H138.289V39.372H139.238L139.265 41.0862ZM142.033 39.3046L142.007 40.3735C141.901 40.3479 141.802 40.3318 141.708 40.3254C141.614 40.3126 141.512 40.3061 141.4 40.3061C141.031 40.3061 140.709 40.396 140.434 40.5758C140.158 40.7555 139.924 41.0091 139.73 41.3365C139.543 41.6575 139.396 42.0331 139.291 42.4633C139.191 42.887 139.133 43.346 139.115 43.8403L138.772 44.0041C138.772 43.33 138.825 42.7008 138.931 42.1166C139.036 41.5324 139.197 41.0188 139.414 40.5758C139.637 40.1328 139.915 39.7893 140.249 39.5454C140.589 39.3014 140.987 39.1794 141.444 39.1794C141.55 39.1794 141.658 39.1923 141.77 39.2179C141.887 39.2372 141.975 39.2661 142.033 39.3046Z" fill="#121212"/>
<path d="M145.912 48.665L148.399 39.372H149.401L146.448 49.7917H145.736L145.912 48.665ZM143.697 39.372L146.22 48.6842L146.36 49.7917H145.657L142.687 39.372H143.697Z" fill="#121212"/>
<path d="M150.87 39.372V49.7917H149.895V39.372H150.87ZM149.745 36.3771C149.745 36.146 149.801 35.9566 149.912 35.8089C150.029 35.6548 150.19 35.5778 150.396 35.5778C150.595 35.5778 150.75 35.6548 150.861 35.8089C150.979 35.9566 151.037 36.146 151.037 36.3771C151.037 36.589 150.979 36.7687 150.861 36.9164C150.75 37.064 150.595 37.1379 150.396 37.1379C150.19 37.1379 150.029 37.064 149.912 36.9164C149.801 36.7687 149.745 36.589 149.745 36.3771Z" fill="#121212"/>
<path d="M155.036 48.9828C155.399 48.9828 155.739 48.9089 156.056 48.7613C156.378 48.6136 156.642 48.3632 156.847 48.0101C157.052 47.657 157.169 47.1723 157.198 46.556H158.13C158.106 47.3007 157.951 47.9299 157.664 48.4435C157.377 48.9507 157.005 49.3359 156.548 49.5991C156.091 49.8623 155.587 49.9939 155.036 49.9939C154.468 49.9939 153.97 49.8912 153.542 49.6858C153.114 49.4803 152.757 49.1754 152.47 48.7709C152.183 48.36 151.966 47.8561 151.819 47.259C151.673 46.6555 151.6 45.9589 151.6 45.1693V43.9848C151.6 43.2016 151.673 42.5114 151.819 41.9143C151.966 41.3109 152.183 40.8069 152.47 40.4024C152.757 39.998 153.114 39.693 153.542 39.4876C153.97 39.2821 154.468 39.1794 155.036 39.1794C155.616 39.1794 156.135 39.3142 156.592 39.5839C157.049 39.8471 157.412 40.2516 157.682 40.7973C157.957 41.343 158.106 42.0395 158.13 42.887H157.198C157.175 42.2386 157.063 41.7185 156.864 41.3269C156.671 40.9289 156.416 40.64 156.1 40.4602C155.783 40.274 155.429 40.1809 155.036 40.1809C154.585 40.1809 154.201 40.2676 153.885 40.441C153.574 40.6079 153.322 40.855 153.129 41.1825C152.936 41.5099 152.795 41.9079 152.707 42.3766C152.619 42.8452 152.575 43.3813 152.575 43.9848V45.1693C152.575 45.7792 152.619 46.3217 152.707 46.7968C152.795 47.2718 152.936 47.6731 153.129 48.0005C153.328 48.3215 153.583 48.5655 153.894 48.7324C154.21 48.8993 154.591 48.9828 155.036 48.9828Z" fill="#121212"/>
<path d="M162.427 49.9939C161.899 49.9939 161.413 49.9008 160.968 49.7146C160.528 49.522 160.147 49.2331 159.825 48.8479C159.509 48.4563 159.263 47.9652 159.087 47.3746C158.911 46.7775 158.823 46.0745 158.823 45.2656V44.0618C158.823 43.2016 158.917 42.4633 159.104 41.8469C159.292 41.2242 159.544 40.717 159.86 40.3254C160.183 39.9274 160.549 39.6385 160.959 39.4587C161.369 39.2725 161.803 39.1794 162.26 39.1794C162.781 39.1794 163.238 39.2725 163.631 39.4587C164.029 39.6449 164.363 39.9274 164.633 40.3061C164.902 40.6849 165.104 41.1632 165.239 41.741C165.374 42.3124 165.441 42.9897 165.441 43.7729V44.6685H159.412V43.667H164.466V43.3974C164.454 42.7168 164.366 42.139 164.202 41.664C164.044 41.1825 163.804 40.8165 163.481 40.5661C163.165 40.3093 162.761 40.1809 162.269 40.1809C161.905 40.1809 161.571 40.2548 161.267 40.4024C160.962 40.5437 160.698 40.7684 160.476 41.0765C160.259 41.3847 160.092 41.7859 159.975 42.2803C159.863 42.7746 159.808 43.3685 159.808 44.0618V45.2656C159.808 45.9012 159.869 46.4533 159.992 46.9219C160.121 47.3842 160.303 47.7694 160.537 48.0775C160.771 48.3793 161.053 48.6072 161.381 48.7613C161.709 48.9089 162.072 48.9828 162.471 48.9828C162.963 48.9828 163.394 48.8929 163.763 48.7131C164.132 48.5269 164.46 48.2477 164.747 47.8753L165.266 48.5879C165.09 48.8383 164.873 49.0726 164.615 49.2909C164.357 49.5028 164.05 49.6729 163.692 49.8013C163.335 49.9297 162.913 49.9939 162.427 49.9939Z" fill="#121212"/>
</svg>
