<svg width="88" height="32" viewBox="0 0 88 32" fill="none" xmlns="http://www.w3.org/2000/svg">
<path d="M21.8768 22H20.2968L19.7768 19.02H16.5368L16.0168 22H14.5568L17.1568 8H19.2568L21.8768 22ZM18.1368 9.78L16.7768 17.66H19.5368L18.1368 9.78ZM26.9293 11.94V13.22H25.1093V19.74C25.1093 20.54 25.3693 20.86 26.0893 20.86C26.3893 20.86 26.6693 20.8 26.9293 20.7V22C26.6293 22.14 26.2493 22.2 25.8093 22.2C24.3293 22.2 23.5893 21.44 23.5893 19.9V13.22H22.3493V11.94H23.6493L23.8093 9.04H25.1093V11.94H26.9293ZM32.1637 11.94V13.22H30.3437V19.74C30.3437 20.54 30.6037 20.86 31.3237 20.86C31.6237 20.86 31.9037 20.8 32.1637 20.7V22C31.8637 22.14 31.4837 22.2 31.0437 22.2C29.5637 22.2 28.8237 21.44 28.8237 19.9V13.22H27.5837V11.94H28.8837L29.0437 9.04H30.3437V11.94H32.1637ZM39.1966 22H37.8166C37.7566 21.78 37.6966 21.34 37.6566 20.64C37.2366 21.68 36.4566 22.2 35.3166 22.2C33.9366 22.2 33.0766 21.24 33.0766 19.72C33.0766 18.18 33.7566 17.28 35.5766 16.42C36.4166 16.04 36.9366 15.76 37.1566 15.58C37.3766 15.4 37.4766 15.12 37.4766 14.78V14.54C37.4766 13.54 37.0366 13.04 36.1766 13.04C35.2966 13.04 34.7766 13.6 34.7766 14.58V14.88H33.3566V14.66C33.3566 12.8 34.3766 11.74 36.1966 11.74C38.0566 11.74 38.9766 12.76 38.9766 14.78V19.26C38.9766 20.48 39.0566 21.38 39.1966 22ZM35.8366 20.88C36.8566 20.88 37.4766 20.04 37.4766 18.6V16.58C37.3166 16.8 36.8366 17.1 36.0166 17.52C35.0766 18 34.5966 18.66 34.5966 19.5C34.5966 20.42 35.0166 20.88 35.8366 20.88ZM43.6004 22.2C41.6804 22.2 40.6604 21.06 40.6604 18.98V14.94C40.6604 12.86 41.6804 11.74 43.6004 11.74C45.5004 11.74 46.4804 12.92 46.4804 14.94V15.38H45.0204V14.8C45.0204 13.66 44.5404 13.08 43.6004 13.08C42.6604 13.08 42.1804 13.66 42.1804 14.8V19.12C42.1804 20.28 42.6604 20.86 43.6004 20.86C44.5404 20.86 45.0204 20.28 45.0204 19.12V18.34H46.4804V18.98C46.4804 21.04 45.5004 22.2 43.6004 22.2ZM51.5879 11.74C53.1279 11.74 53.9079 12.7 53.9079 14.64V22H52.3879V14.84C52.3879 13.66 51.9679 13.08 51.1279 13.08C50.1879 13.08 49.5479 13.88 49.5479 15.32V22H48.0479V8H49.5479V12.9C50.0079 12.12 50.6879 11.74 51.5879 11.74Z" fill="#259F83"/>
<rect x="1" y="1" width="86" height="30" rx="12" stroke="#259F83" stroke-width="2"/>
<path d="M72.8793 6C71.5636 6 70.2479 6.54174 69.2418 7.52203L62.0702 14.5389C59.3099 17.2992 59.3099 21.7621 62.0702 24.5482C64.8305 27.3085 69.2934 27.3085 72.0795 24.5482L75.3042 21.3235L73.5242 19.5435L70.5317 22.4586L70.2995 22.794C68.5195 24.574 65.6302 24.574 63.8502 22.794C62.096 21.0398 62.1476 18.2021 63.8502 16.4221L71.0219 9.32784C72.0279 8.32175 73.7048 8.32175 74.7367 9.32784C75.7427 10.3339 75.6911 11.9334 74.7367 12.9652L68.2874 19.3372C68.0294 19.5951 67.5908 19.5951 67.3071 19.3372C67.0491 19.0792 67.0491 18.6406 67.3071 18.3569L67.4618 18.2795L69.8094 15.8545L68.0294 14.0745L65.5271 16.5769C64.2888 17.8151 64.2888 19.8531 65.5271 21.0914C66.7653 22.3296 68.8033 22.3554 70.0416 21.0914L76.4909 14.7968C78.503 12.7847 78.503 9.53422 76.4909 7.54783C75.4848 6.54174 74.1949 6.0258 72.8535 6.0258L72.8793 6Z" fill="#259F83"/>
</svg>
