<svg width="88" height="32" viewBox="0 0 88 32" fill="none" xmlns="http://www.w3.org/2000/svg">
<rect x="1" y="1" width="86" height="30" rx="12" stroke="#EE161F" stroke-width="2"/>
<path d="M28.0098 22.2C26.0298 22.2 24.8898 20.96 24.8898 18.86V11.14C24.8898 9.04 26.0098 7.8 28.0098 7.8C30.0098 7.8 31.1298 9.04 31.1298 11.14V12.58H29.6498V11.04C29.6498 9.86 29.0298 9.22 28.0498 9.22C27.0698 9.22 26.4498 9.86 26.4498 11.04V18.96C26.4498 20.14 27.0698 20.78 28.0498 20.78C29.0298 20.78 29.6498 20.14 29.6498 18.96V17H31.1298V18.86C31.1298 20.96 30.0098 22.2 28.0098 22.2ZM38.4642 22H37.0842C37.0242 21.78 36.9642 21.34 36.9242 20.64C36.5042 21.68 35.7242 22.2 34.5842 22.2C33.2042 22.2 32.3442 21.24 32.3442 19.72C32.3442 18.18 33.0242 17.28 34.8442 16.42C35.6842 16.04 36.2042 15.76 36.4242 15.58C36.6442 15.4 36.7442 15.12 36.7442 14.78V14.54C36.7442 13.54 36.3042 13.04 35.4442 13.04C34.5642 13.04 34.0442 13.6 34.0442 14.58V14.88H32.6242V14.66C32.6242 12.8 33.6442 11.74 35.4642 11.74C37.3242 11.74 38.2442 12.76 38.2442 14.78V19.26C38.2442 20.48 38.3242 21.38 38.4642 22ZM35.1042 20.88C36.1242 20.88 36.7442 20.04 36.7442 18.6V16.58C36.5842 16.8 36.1042 17.1 35.2842 17.52C34.3442 18 33.8642 18.66 33.8642 19.5C33.8642 20.42 34.2842 20.88 35.1042 20.88ZM43.668 11.74C45.208 11.74 45.988 12.7 45.988 14.64V22H44.468V14.84C44.468 13.66 44.048 13.08 43.208 13.08C42.268 13.08 41.628 13.88 41.628 15.32V22H40.128V11.94H41.428L41.448 13.26C41.868 12.24 42.608 11.74 43.668 11.74ZM50.5633 22.2C48.6433 22.2 47.6233 21.06 47.6233 18.98V14.94C47.6233 12.86 48.6433 11.74 50.5633 11.74C52.4633 11.74 53.4433 12.92 53.4433 14.94V15.38H51.9833V14.8C51.9833 13.66 51.5033 13.08 50.5633 13.08C49.6233 13.08 49.1433 13.66 49.1433 14.8V19.12C49.1433 20.28 49.6233 20.86 50.5633 20.86C51.5033 20.86 51.9833 20.28 51.9833 19.12V18.34H53.4433V18.98C53.4433 21.04 52.4633 22.2 50.5633 22.2ZM57.8298 11.74C59.7498 11.74 60.8098 12.9 60.8098 14.98V17.2H56.3698V19.08C56.3698 20.26 56.8698 20.86 57.8498 20.86C58.8498 20.86 59.3498 20.26 59.3498 19.08V18.78H60.8098V18.94C60.8098 21.02 59.7498 22.2 57.8298 22.2C55.9098 22.2 54.8498 21.02 54.8498 18.94V14.98C54.8498 12.9 55.8898 11.74 57.8298 11.74ZM56.3698 14.84V15.96H59.3298V14.84C59.3298 13.66 58.8298 13.08 57.8298 13.08C56.8498 13.08 56.3698 13.66 56.3698 14.84ZM63.9522 22H62.4522V8H63.9522V22Z" fill="#EE161F"/>
</svg>
