<svg width="88" height="32" viewBox="0 0 88 32" fill="none" xmlns="http://www.w3.org/2000/svg">
<rect x="1" y="1" width="86" height="30" rx="12" stroke="#259F83" stroke-width="2"/>
<path d="M24.1817 22.2C22.2017 22.2 21.0617 20.96 21.0617 18.86V11.14C21.0617 9.04 22.1817 7.8 24.1817 7.8C26.1817 7.8 27.3017 9.04 27.3017 11.14V12.58H25.8217V11.04C25.8217 9.86 25.2017 9.22 24.2217 9.22C23.2417 9.22 22.6217 9.86 22.6217 11.04V18.96C22.6217 20.14 23.2417 20.78 24.2217 20.78C25.2017 20.78 25.8217 20.14 25.8217 18.96V17H27.3017V18.86C27.3017 20.96 26.1817 22.2 24.1817 22.2ZM31.6184 22.2C29.6984 22.2 28.6584 21.02 28.6584 18.94V14.98C28.6584 12.9 29.6984 11.74 31.6184 11.74C33.5184 11.74 34.5784 12.9 34.5784 14.98V18.94C34.5784 21.02 33.5184 22.2 31.6184 22.2ZM31.6184 20.86C32.5784 20.86 33.0584 20.26 33.0584 19.08V14.84C33.0584 13.66 32.5784 13.08 31.6184 13.08C30.6384 13.08 30.1584 13.66 30.1584 14.84V19.08C30.1584 20.26 30.6384 20.86 31.6184 20.86ZM39.8203 11.74C41.3603 11.74 42.1403 12.7 42.1403 14.64V22H40.6203V14.84C40.6203 13.66 40.2003 13.08 39.3603 13.08C38.4203 13.08 37.7803 13.88 37.7803 15.32V22H36.2803V11.94H37.5803L37.6003 13.26C38.0203 12.24 38.7603 11.74 39.8203 11.74ZM44.6356 11.94V10.08C44.6356 8.56 45.3756 7.8 46.8356 7.8C47.2756 7.8 47.6556 7.86 47.9556 8V9.3C47.6956 9.2 47.4156 9.14 47.1156 9.14C46.4156 9.14 46.1356 9.44 46.1356 10.26V11.94H47.9556V13.22H46.1356V22H44.6356V13.22H43.3556V11.94H44.6356ZM49.2156 10.5V8.34H50.7156V10.5H49.2156ZM50.7156 22H49.2156V11.94H50.7156V22ZM56.048 11.74C56.328 11.74 56.548 11.78 56.708 11.86V13.34C56.528 13.28 56.328 13.24 56.088 13.24C54.788 13.24 54.128 14.2 54.128 16.14V22H52.628V11.94H53.928L53.948 13.6C54.288 12.36 54.988 11.74 56.048 11.74ZM65.6014 11.74C67.1014 11.74 67.8614 12.68 67.8614 14.56V22H66.3614V14.66C66.3614 13.6 65.9614 13.08 65.1614 13.08C64.2614 13.08 63.6414 13.88 63.6414 15.32V22H62.1214V14.66C62.1214 13.6 61.7214 13.08 60.9214 13.08C60.0214 13.08 59.4014 13.88 59.4014 15.32V22H57.9014V11.94H59.2014L59.2214 13.26C59.6414 12.24 60.3614 11.74 61.3814 11.74C62.4614 11.74 63.1614 12.24 63.4614 13.22C63.8814 12.24 64.5814 11.74 65.6014 11.74Z" fill="#259F83"/>
</svg>
