<svg width="88" height="32" viewBox="0 0 88 32" fill="none" xmlns="http://www.w3.org/2000/svg">
<rect x="1" y="1" width="86" height="30" rx="12" stroke="#259F83" stroke-width="2"/>
<path d="M28.3419 22.2C26.3619 22.2 25.2219 20.96 25.2219 18.86V11.14C25.2219 9.04 26.3419 7.8 28.3419 7.8C30.3419 7.8 31.4619 9.04 31.4619 11.14V12.58H29.9819V11.04C29.9819 9.86 29.3619 9.22 28.3819 9.22C27.4019 9.22 26.7819 9.86 26.7819 11.04V18.96C26.7819 20.14 27.4019 20.78 28.3819 20.78C29.3619 20.78 29.9819 20.14 29.9819 18.96V17H31.4619V18.86C31.4619 20.96 30.3419 22.2 28.3419 22.2ZM36.4386 11.74C36.7186 11.74 36.9386 11.78 37.0986 11.86V13.34C36.9186 13.28 36.7186 13.24 36.4786 13.24C35.1786 13.24 34.5186 14.2 34.5186 16.14V22H33.0186V11.94H34.3186L34.3386 13.6C34.6786 12.36 35.3786 11.74 36.4386 11.74ZM40.9744 11.74C42.8944 11.74 43.9544 12.9 43.9544 14.98V17.2H39.5144V19.08C39.5144 20.26 40.0144 20.86 40.9944 20.86C41.9944 20.86 42.4944 20.26 42.4944 19.08V18.78H43.9544V18.94C43.9544 21.02 42.8944 22.2 40.9744 22.2C39.0544 22.2 37.9944 21.02 37.9944 18.94V14.98C37.9944 12.9 39.0344 11.74 40.9744 11.74ZM39.5144 14.84V15.96H42.4744V14.84C42.4744 13.66 41.9744 13.08 40.9744 13.08C39.9944 13.08 39.5144 13.66 39.5144 14.84ZM51.2767 22H49.8967C49.8367 21.78 49.7767 21.34 49.7367 20.64C49.3167 21.68 48.5367 22.2 47.3967 22.2C46.0167 22.2 45.1567 21.24 45.1567 19.72C45.1567 18.18 45.8367 17.28 47.6567 16.42C48.4967 16.04 49.0167 15.76 49.2367 15.58C49.4567 15.4 49.5567 15.12 49.5567 14.78V14.54C49.5567 13.54 49.1167 13.04 48.2567 13.04C47.3767 13.04 46.8567 13.6 46.8567 14.58V14.88H45.4367V14.66C45.4367 12.8 46.4567 11.74 48.2767 11.74C50.1367 11.74 51.0567 12.76 51.0567 14.78V19.26C51.0567 20.48 51.1367 21.38 51.2767 22ZM47.9167 20.88C48.9367 20.88 49.5567 20.04 49.5567 18.6V16.58C49.3967 16.8 48.9167 17.1 48.0967 17.52C47.1567 18 46.6767 18.66 46.6767 19.5C46.6767 20.42 47.0967 20.88 47.9167 20.88ZM56.8023 11.94V13.22H54.9823V19.74C54.9823 20.54 55.2423 20.86 55.9623 20.86C56.2623 20.86 56.5423 20.8 56.8023 20.7V22C56.5023 22.14 56.1223 22.2 55.6823 22.2C54.2023 22.2 53.4623 21.44 53.4623 19.9V13.22H52.2223V11.94H53.5223L53.6823 9.04H54.9823V11.94H56.8023ZM60.9158 11.74C62.8358 11.74 63.8958 12.9 63.8958 14.98V17.2H59.4558V19.08C59.4558 20.26 59.9558 20.86 60.9358 20.86C61.9358 20.86 62.4358 20.26 62.4358 19.08V18.78H63.8958V18.94C63.8958 21.02 62.8358 22.2 60.9158 22.2C58.9958 22.2 57.9358 21.02 57.9358 18.94V14.98C57.9358 12.9 58.9758 11.74 60.9158 11.74ZM59.4558 14.84V15.96H62.4158V14.84C62.4158 13.66 61.9158 13.08 60.9158 13.08C59.9358 13.08 59.4558 13.66 59.4558 14.84Z" fill="#259F83"/>
</svg>
