<svg width="71" height="25" viewBox="0 0 71 25" fill="none" xmlns="http://www.w3.org/2000/svg">
<path d="M0.545654 0.74707C5.40411 1.26722 10.2064 3.67797 13.4725 7.31224C16.7386 10.9465 18.5455 15.6601 18.5457 20.5463H14.7423C14.7422 16.943 13.206 12.4713 10.7975 9.79123C8.38893 7.11117 4.12849 5.0096 0.545654 4.62602V0.74707Z" fill="#259F83"/>
<path d="M1 19L1 9" stroke="#259F83" stroke-width="2" stroke-linecap="round"/>
<path d="M6.04541 18.8469V12.8469" stroke="#259F83" stroke-width="2" stroke-linecap="round"/>
<path d="M10.6453 18.8469V16.8469" stroke="#259F83" stroke-width="2" stroke-linecap="round"/>
<path d="M26.926 21H24.574V11.2H26.926C28.452 11.2 29.222 12.012 29.222 13.622V18.578C29.222 20.188 28.452 21 26.926 21ZM26.114 12.6V19.6H26.898C27.416 19.6 27.682 19.278 27.682 18.648V13.552C27.682 12.922 27.416 12.6 26.898 12.6H26.114ZM34.5719 21H33.2139C33.1439 20.874 33.1159 20.594 33.1019 20.16C32.8219 20.818 32.3179 21.14 31.5899 21.14C30.6379 21.14 30.0359 20.454 30.0359 19.348C30.0359 18.228 30.5119 17.584 31.7579 16.968C32.2759 16.716 32.5979 16.534 32.7239 16.422C32.8499 16.296 32.9199 16.142 32.9199 15.946V15.806C32.9199 15.26 32.7239 14.994 32.3179 14.994C31.8699 14.994 31.6459 15.274 31.6459 15.82V16.086H30.2459V15.904C30.2459 14.504 30.9739 13.72 32.3319 13.72C33.7879 13.72 34.4039 14.462 34.4039 16.072V18.942C34.4039 19.852 34.4599 20.538 34.5719 21ZM32.1499 19.866C32.6679 19.866 32.9199 19.474 32.9199 18.676V17.458C32.8499 17.542 32.5979 17.724 32.1919 17.99C31.7439 18.27 31.5199 18.634 31.5199 19.096C31.5199 19.614 31.7299 19.866 32.1499 19.866ZM37.4148 21.14C36.0568 21.14 35.2588 20.342 35.2588 18.956V18.732H36.6868V18.998C36.6868 19.572 36.9108 19.866 37.3448 19.866C37.7788 19.866 37.9888 19.614 37.9888 19.096C37.9888 18.928 37.9328 18.774 37.8208 18.634C37.6108 18.34 37.4428 18.242 36.9528 17.962C36.6868 17.808 36.4908 17.696 36.3648 17.598C36.2388 17.5 36.0708 17.374 35.8748 17.192C35.4968 16.814 35.3288 16.324 35.3288 15.694C35.3288 14.476 36.0428 13.72 37.3308 13.72C38.5628 13.72 39.3328 14.518 39.3328 15.806V15.96H37.9328V15.764C37.9328 15.246 37.7368 14.994 37.3448 14.994C36.9668 14.994 36.7708 15.218 36.7708 15.666C36.7708 16.184 37.1348 16.492 37.8628 16.884C38.3668 17.164 38.5768 17.29 38.9268 17.64C39.3048 17.99 39.4588 18.466 39.4588 19.068C39.4588 20.356 38.7448 21.14 37.4148 21.14ZM43.068 13.72C44.132 13.72 44.664 14.42 44.664 15.806V21H43.18V15.974C43.18 15.344 42.97 15.036 42.564 15.036C42.06 15.036 41.808 15.414 41.808 16.184V21H40.324V11.2H41.808V14.364C42.102 13.93 42.522 13.72 43.068 13.72ZM48.5094 13.72C49.5874 13.72 50.1334 14.42 50.1334 15.806V19.054C50.1334 20.44 49.5874 21.14 48.5094 21.14C47.8234 21.14 47.2774 20.734 47.0394 20.048L46.8434 21H45.7654V11.2H47.2494V14.378C47.5574 13.944 47.9774 13.72 48.5094 13.72ZM48.6494 18.956V15.904C48.6494 15.33 48.4394 15.036 48.0194 15.036C47.5014 15.036 47.2494 15.414 47.2494 16.184V18.676C47.2494 19.446 47.5014 19.824 48.0194 19.824C48.4394 19.824 48.6494 19.53 48.6494 18.956ZM51.0395 18.816V16.044C51.0395 14.546 51.8235 13.72 53.2235 13.72C54.6235 13.72 55.4075 14.546 55.4075 16.044V18.816C55.4075 20.314 54.6235 21.14 53.2235 21.14C51.8235 21.14 51.0395 20.314 51.0395 18.816ZM53.9235 18.956V15.904C53.9235 15.33 53.6855 15.036 53.2235 15.036C52.7615 15.036 52.5235 15.33 52.5235 15.904V18.956C52.5235 19.53 52.7615 19.824 53.2235 19.824C53.6855 19.824 53.9235 19.53 53.9235 18.956ZM60.6578 21H59.2998C59.2298 20.874 59.2018 20.594 59.1878 20.16C58.9078 20.818 58.4038 21.14 57.6758 21.14C56.7238 21.14 56.1218 20.454 56.1218 19.348C56.1218 18.228 56.5978 17.584 57.8438 16.968C58.3618 16.716 58.6838 16.534 58.8098 16.422C58.9358 16.296 59.0058 16.142 59.0058 15.946V15.806C59.0058 15.26 58.8098 14.994 58.4038 14.994C57.9558 14.994 57.7318 15.274 57.7318 15.82V16.086H56.3318V15.904C56.3318 14.504 57.0598 13.72 58.4178 13.72C59.8738 13.72 60.4898 14.462 60.4898 16.072V18.942C60.4898 19.852 60.5458 20.538 60.6578 21ZM58.2358 19.866C58.7538 19.866 59.0058 19.474 59.0058 18.676V17.458C58.9358 17.542 58.6838 17.724 58.2778 17.99C57.8298 18.27 57.6058 18.634 57.6058 19.096C57.6058 19.614 57.8158 19.866 58.2358 19.866ZM64.3268 13.72C64.4948 13.72 64.6348 13.748 64.7468 13.804V15.246C64.6348 15.218 64.5088 15.204 64.3688 15.204C63.5288 15.204 63.1088 15.764 63.1088 16.884V21H61.6248V13.86H62.9128L62.9408 15.064C63.1368 14.168 63.5988 13.72 64.3268 13.72ZM69.8499 21H68.4919C68.4359 20.888 68.3939 20.608 68.3659 20.16C68.0999 20.818 67.6099 21.14 66.9239 21.14C65.8459 21.14 65.3139 20.44 65.3139 19.054V15.806C65.3139 14.42 65.8459 13.72 66.9239 13.72C67.4699 13.72 67.8899 13.944 68.1979 14.378V11.2H69.6819V18.942C69.6819 19.852 69.7379 20.538 69.8499 21ZM67.4279 19.824C67.9459 19.824 68.1979 19.446 68.1979 18.676V16.184C68.1979 15.414 67.9459 15.036 67.4279 15.036C67.0079 15.036 66.7979 15.33 66.7979 15.904V18.956C66.7979 19.53 67.0079 19.824 67.4279 19.824Z" fill="#259F83"/>
</svg>
