<svg width="52" height="28" viewBox="0 0 52 28" fill="none" xmlns="http://www.w3.org/2000/svg">
<path fill-rule="evenodd" clip-rule="evenodd" d="M19.7031 12.3455L10.8418 3.39901L1.98438 12.3454V22.0157H7.86903V14.8494V13.865H8.85341H12.8341H13.8185V14.8494V22.0157H19.7031V12.3455ZM21.6719 23V23.9844H20.6875H12.8341H11.8497V23V15.8338H9.83778L9.83778 23V23.9844H8.85341H1H0.015625V23V11.9405V11.5356L0.300476 11.2479L10.1422 1.30747L10.8415 0.601074L11.5411 1.30732L21.3869 11.2478L21.6719 11.5355V11.9405V23Z" fill="#259F83"/>
<path d="M29.114 24H27.574V14.2H29.114V18.19H30.766V14.2H32.306V24H30.766V19.59H29.114V24ZM33.3129 21.816V19.044C33.3129 17.546 34.0969 16.72 35.4969 16.72C36.8969 16.72 37.6809 17.546 37.6809 19.044V21.816C37.6809 23.314 36.8969 24.14 35.4969 24.14C34.0969 24.14 33.3129 23.314 33.3129 21.816ZM36.1969 21.956V18.904C36.1969 18.33 35.9589 18.036 35.4969 18.036C35.0349 18.036 34.7969 18.33 34.7969 18.904V21.956C34.7969 22.53 35.0349 22.824 35.4969 22.824C35.9589 22.824 36.1969 22.53 36.1969 21.956ZM44.2332 16.72C45.2972 16.72 45.8292 17.42 45.8292 18.806V24H44.3452V18.904C44.3452 18.33 44.1492 18.036 43.7432 18.036C43.2532 18.036 43.0012 18.414 43.0012 19.184V24H41.5172V18.904C41.5172 18.33 41.3212 18.036 40.9152 18.036C40.4252 18.036 40.1732 18.414 40.1732 19.184V24H38.6892V16.86H39.9772L40.0052 17.686C40.2712 17.042 40.7332 16.72 41.4052 16.72C42.1192 16.72 42.5952 17.042 42.8332 17.672C43.0712 17.07 43.6032 16.72 44.2332 16.72ZM51.1894 19.044V20.752H48.2774V21.956C48.2774 22.53 48.5294 22.824 49.0194 22.824C49.5094 22.824 49.7614 22.53 49.7614 21.956V21.69H51.1894V21.816C51.1894 23.314 50.4054 24.14 48.9914 24.14C47.5774 24.14 46.7934 23.314 46.7934 21.816V19.044C46.7934 17.546 47.5774 16.72 48.9914 16.72C50.4054 16.72 51.1894 17.546 51.1894 19.044ZM48.2774 18.904V19.576H49.7334V18.904C49.7334 18.33 49.4954 18.036 49.0054 18.036C48.5154 18.036 48.2774 18.33 48.2774 18.904Z" fill="#259F83"/>
</svg>
