<svg width="57" height="29" viewBox="0 0 57 29" fill="none" xmlns="http://www.w3.org/2000/svg">
<path d="M29.114 25H27.574V15.2H29.114V25ZM35.8114 17.72C36.8754 17.72 37.4074 18.42 37.4074 19.806V25H35.9234V19.904C35.9234 19.33 35.7274 19.036 35.3214 19.036C34.8314 19.036 34.5794 19.414 34.5794 20.184V25H33.0954V19.904C33.0954 19.33 32.8994 19.036 32.4934 19.036C32.0034 19.036 31.7514 19.414 31.7514 20.184V25H30.2674V17.86H31.5554L31.5834 18.686C31.8494 18.042 32.3114 17.72 32.9834 17.72C33.6974 17.72 34.1734 18.042 34.4114 18.672C34.6494 18.07 35.1814 17.72 35.8114 17.72ZM41.2555 17.72C42.3335 17.72 42.8795 18.42 42.8795 19.806V23.054C42.8795 24.44 42.3335 25.14 41.2555 25.14C40.7235 25.14 40.3035 24.916 39.9955 24.482V27.17H38.5115V17.86H39.7995L39.8275 18.7C40.0935 18.042 40.5695 17.72 41.2555 17.72ZM41.3955 22.956V19.904C41.3955 19.33 41.1855 19.036 40.7655 19.036C40.2475 19.036 39.9955 19.414 39.9955 20.184V22.676C39.9955 23.446 40.2475 23.824 40.7655 23.824C41.1855 23.824 41.3955 23.53 41.3955 22.956ZM43.7856 22.816V20.044C43.7856 18.546 44.5696 17.72 45.9696 17.72C47.3696 17.72 48.1536 18.546 48.1536 20.044V22.816C48.1536 24.314 47.3696 25.14 45.9696 25.14C44.5696 25.14 43.7856 24.314 43.7856 22.816ZM46.6696 22.956V19.904C46.6696 19.33 46.4316 19.036 45.9696 19.036C45.5076 19.036 45.2696 19.33 45.2696 19.904V22.956C45.2696 23.53 45.5076 23.824 45.9696 23.824C46.4316 23.824 46.6696 23.53 46.6696 22.956ZM51.8639 17.72C52.0319 17.72 52.1719 17.748 52.2839 17.804V19.246C52.1719 19.218 52.0459 19.204 51.9059 19.204C51.0659 19.204 50.6459 19.764 50.6459 20.884V25H49.1619V17.86H50.4499L50.4779 19.064C50.6739 18.168 51.1359 17.72 51.8639 17.72ZM56.0537 17.86V19.12H54.9757V23.208C54.9757 23.656 55.1437 23.824 55.5497 23.824C55.7037 23.824 55.8717 23.796 56.0537 23.74V25C55.8157 25.098 55.5357 25.14 55.2417 25.14C54.0797 25.14 53.4917 24.566 53.4917 23.404V19.12H52.6797V17.86H53.5617L53.7017 15.928H54.9757V17.86H56.0537Z" fill="#259F83"/>
<path d="M3 16.4495L3 21.9615C3 23.8879 4.2727 25.4495 5.84265 25.4495H9.15735H14.8426H18.1574C19.7273 25.4495 21 23.8879 21 21.9615V16.4495" stroke="#259F83" stroke-width="5" stroke-linecap="round"/>
<line x1="12" y1="14.5" x2="12" y2="2.5" stroke="#259F83" stroke-width="5" stroke-linecap="round"/>
<path d="M6.5 9L12 14.5L17 9" stroke="#259F83" stroke-width="5" stroke-linecap="round"/>
<path d="M11.75 5.75V1.75" stroke="white" stroke-width="1.1" stroke-linecap="round"/>
</svg>
