<svg width="56" height="24" viewBox="0 0 56 24" fill="none" xmlns="http://www.w3.org/2000/svg">
<path d="M0.82 4H3.58L5.72 12.38H5.76V4H7.72V18H5.46L2.82 7.78H2.78V18H0.82V4ZM9.35516 4H15.3552V6H11.5552V9.7H14.5752V11.7H11.5552V16H15.3552V18H9.35516V4ZM18.5998 10.84L16.1798 4H18.4998L19.9798 8.52H20.0198L21.5398 4H23.6198L21.1998 10.84L23.7398 18H21.4198L19.8198 13.12H19.7798L18.1398 18H16.0598L18.5998 10.84ZM26.5048 6H24.2048V4H31.0048V6H28.7048V18H26.5048V6Z" fill="#259F83"/>
<path d="M55.7071 12.7071C56.0976 12.3166 56.0976 11.6834 55.7071 11.2929L49.3431 4.92893C48.9526 4.53841 48.3195 4.53841 47.9289 4.92893C47.5384 5.31946 47.5384 5.95262 47.9289 6.34315L53.5858 12L47.9289 17.6569C47.5384 18.0474 47.5384 18.6805 47.9289 19.0711C48.3195 19.4616 48.9526 19.4616 49.3431 19.0711L55.7071 12.7071ZM37 13L55 13L55 11L37 11L37 13Z" fill="#259F83"/>
</svg>
