<svg width="83" height="24" viewBox="0 0 83 24" fill="none" xmlns="http://www.w3.org/2000/svg">
<path d="M24.82 4H28.06C29.1533 4 29.9733 4.29333 30.52 4.88C31.0667 5.46667 31.34 6.32667 31.34 7.46V8.84C31.34 9.97333 31.0667 10.8333 30.52 11.42C29.9733 12.0067 29.1533 12.3 28.06 12.3H27.02V18H24.82V4ZM28.06 10.3C28.42 10.3 28.6867 10.2 28.86 10C29.0467 9.8 29.14 9.46 29.14 8.98V7.32C29.14 6.84 29.0467 6.5 28.86 6.3C28.6867 6.1 28.42 6 28.06 6H27.02V10.3H28.06ZM32.5348 4H35.7948C36.9282 4 37.7548 4.26667 38.2748 4.8C38.7948 5.32 39.0548 6.12667 39.0548 7.22V8.08C39.0548 9.53333 38.5748 10.4533 37.6148 10.84V10.88C38.1482 11.04 38.5215 11.3667 38.7348 11.86C38.9615 12.3533 39.0748 13.0133 39.0748 13.84V16.3C39.0748 16.7 39.0882 17.0267 39.1148 17.28C39.1415 17.52 39.2082 17.76 39.3148 18H37.0748C36.9948 17.7733 36.9415 17.56 36.9148 17.36C36.8882 17.16 36.8748 16.8 36.8748 16.28V13.72C36.8748 13.08 36.7682 12.6333 36.5548 12.38C36.3548 12.1267 36.0015 12 35.4948 12H34.7348V18H32.5348V4ZM35.5348 10C35.9748 10 36.3015 9.88667 36.5148 9.66C36.7415 9.43333 36.8548 9.05333 36.8548 8.52V7.44C36.8548 6.93333 36.7615 6.56667 36.5748 6.34C36.4015 6.11333 36.1215 6 35.7348 6H34.7348V10H35.5348ZM40.6013 4H46.6013V6H42.8013V9.7H45.8213V11.7H42.8013V16H46.6013V18H40.6013V4ZM47.2869 4H49.5069L50.9469 14.86H50.9869L52.4269 4H54.4469L52.3269 18H49.4069L47.2869 4ZM55.5036 4H57.7036V18H55.5036V4ZM62.5313 18.2C61.4513 18.2 60.6246 17.8933 60.0513 17.28C59.4779 16.6667 59.1912 15.8 59.1912 14.68V7.32C59.1912 6.2 59.4779 5.33333 60.0513 4.72C60.6246 4.10667 61.4513 3.8 62.5313 3.8C63.6113 3.8 64.4379 4.10667 65.0113 4.72C65.5846 5.33333 65.8713 6.2 65.8713 7.32V14.68C65.8713 15.8 65.5846 16.6667 65.0113 17.28C64.4379 17.8933 63.6113 18.2 62.5313 18.2ZM62.5313 16.2C63.2913 16.2 63.6712 15.74 63.6712 14.82V7.18C63.6712 6.26 63.2913 5.8 62.5313 5.8C61.7713 5.8 61.3913 6.26 61.3913 7.18V14.82C61.3913 15.74 61.7713 16.2 62.5313 16.2ZM70.5591 18.2C69.4924 18.2 68.6791 17.9 68.1191 17.3C67.5591 16.6867 67.2791 15.8133 67.2791 14.68V4H69.4791V14.84C69.4791 15.32 69.5724 15.6667 69.7591 15.88C69.9591 16.0933 70.2391 16.2 70.5991 16.2C70.9591 16.2 71.2324 16.0933 71.4191 15.88C71.6191 15.6667 71.7191 15.32 71.7191 14.84V4H73.8391V14.68C73.8391 15.8133 73.5591 16.6867 72.9991 17.3C72.4391 17.9 71.6257 18.2 70.5591 18.2ZM78.2659 18.2C77.1993 18.2 76.3926 17.9 75.8459 17.3C75.2993 16.6867 75.0259 15.8133 75.0259 14.68V13.88H77.1059V14.84C77.1059 15.7467 77.4859 16.2 78.2459 16.2C78.6193 16.2 78.8993 16.0933 79.0859 15.88C79.2859 15.6533 79.3859 15.2933 79.3859 14.8C79.3859 14.2133 79.2526 13.7 78.9859 13.26C78.7193 12.8067 78.2259 12.2667 77.5059 11.64C76.5993 10.84 75.9659 10.12 75.6059 9.48C75.2459 8.82667 75.0659 8.09333 75.0659 7.28C75.0659 6.17333 75.3459 5.32 75.9059 4.72C76.4659 4.10667 77.2793 3.8 78.3459 3.8C79.3993 3.8 80.1926 4.10667 80.7259 4.72C81.2726 5.32 81.5459 6.18667 81.5459 7.32V7.9H79.4659V7.18C79.4659 6.7 79.3726 6.35333 79.1859 6.14C78.9993 5.91333 78.7259 5.8 78.3659 5.8C77.6326 5.8 77.2659 6.24667 77.2659 7.14C77.2659 7.64667 77.3993 8.12 77.6659 8.56C77.9459 9 78.4459 9.53333 79.1659 10.16C80.0859 10.96 80.7193 11.6867 81.0659 12.34C81.4126 12.9933 81.5859 13.76 81.5859 14.64C81.5859 15.7867 81.2993 16.6667 80.7259 17.28C80.1659 17.8933 79.3459 18.2 78.2659 18.2Z" fill="#259F83"/>
<path d="M0.292892 11.2929C-0.0976315 11.6834 -0.0976315 12.3166 0.292892 12.7071L6.65685 19.0711C7.04738 19.4616 7.68054 19.4616 8.07107 19.0711C8.46159 18.6805 8.46159 18.0474 8.07107 17.6569L2.41421 12L8.07107 6.34315C8.46159 5.95262 8.46159 5.31946 8.07107 4.92893C7.68054 4.53841 7.04738 4.53841 6.65685 4.92893L0.292892 11.2929ZM19 11L1 11V13L19 13V11Z" fill="#259F83"/>
</svg>
