<svg width="88" height="32" viewBox="0 0 88 32" fill="none" xmlns="http://www.w3.org/2000/svg">
<rect x="1" y="1" width="86" height="30" rx="12" stroke="#259F83" stroke-width="2"/>
<path d="M22.9291 18.8V18.02H24.4091V18.92C24.4091 20.16 24.9491 20.78 26.0291 20.78C27.1291 20.78 27.6691 20.16 27.6691 18.9C27.6691 18.26 27.5091 17.7 27.1891 17.2C26.8891 16.7 26.3291 16.12 25.5091 15.44C24.5491 14.66 23.8691 13.94 23.4891 13.3C23.1091 12.66 22.9291 11.94 22.9291 11.14C22.9291 9.04 24.0691 7.8 26.0691 7.8C28.0691 7.8 29.1491 9.02 29.1491 11.18V11.74H27.6691V11.08C27.6691 9.84 27.1291 9.22 26.0691 9.22C25.0091 9.22 24.4691 9.82 24.4691 11.04C24.4691 11.62 24.6291 12.14 24.9491 12.62C25.2691 13.1 25.8491 13.68 26.6891 14.36C27.6491 15.16 28.3091 15.88 28.6691 16.54C29.0491 17.18 29.2291 17.92 29.2291 18.78C29.2291 20.96 28.0691 22.2 26.0491 22.2C24.0291 22.2 22.9291 20.98 22.9291 18.8ZM34.992 18.62V11.94H36.492V22H35.192L35.172 20.66C34.752 21.68 34.012 22.2 32.952 22.2C31.412 22.2 30.632 21.22 30.632 19.28V11.94H32.152V19.1C32.152 20.28 32.572 20.86 33.412 20.86C34.352 20.86 34.992 20.06 34.992 18.62ZM41.9673 11.74C43.5473 11.74 44.3273 12.7 44.3273 14.64V19.28C44.3273 21.22 43.5473 22.2 41.9673 22.2C40.8873 22.2 40.1273 21.66 39.7073 20.58L39.5073 22H38.4073V8H39.9073V12.94C40.3673 12.14 41.0673 11.74 41.9673 11.74ZM42.8273 19.16V14.76C42.8273 13.64 42.3873 13.08 41.5273 13.08C40.5673 13.08 39.9073 13.88 39.9073 15.32V18.62C39.9073 20.06 40.5673 20.86 41.5273 20.86C42.3873 20.86 42.8273 20.3 42.8273 19.16ZM53.783 11.74C55.283 11.74 56.043 12.68 56.043 14.56V22H54.543V14.66C54.543 13.6 54.143 13.08 53.343 13.08C52.443 13.08 51.823 13.88 51.823 15.32V22H50.303V14.66C50.303 13.6 49.903 13.08 49.103 13.08C48.203 13.08 47.583 13.88 47.583 15.32V22H46.083V11.94H47.383L47.403 13.26C47.823 12.24 48.543 11.74 49.563 11.74C50.643 11.74 51.343 12.24 51.643 13.22C52.063 12.24 52.763 11.74 53.783 11.74ZM59.3799 10.5H57.8799V8.34H59.3799V10.5ZM59.3799 22H57.8799V11.94H59.3799V22ZM65.2379 11.94V13.22H63.4179V19.74C63.4179 20.54 63.6779 20.86 64.3979 20.86C64.6979 20.86 64.9779 20.8 65.2379 20.7V22C64.9379 22.14 64.5579 22.2 64.1179 22.2C62.6379 22.2 61.8979 21.44 61.8979 19.9V13.22H60.6579V11.94H61.9579L62.1179 9.04H63.4179V11.94H65.2379Z" fill="#259F83"/>
</svg>
