<svg width="83" height="21" viewBox="0 0 83 21" fill="none" xmlns="http://www.w3.org/2000/svg">
<path d="M4.72314 2.20679H18.6152" stroke="#259F83" stroke-width="3" stroke-linecap="round"/>
<path d="M0 2.20675C0 1.53097 0.530971 1 1.20675 1C1.88253 1 2.4135 1.53097 2.4135 2.20675C2.4135 2.88253 1.88253 3.4135 1.20675 3.4135C0.530971 3.4135 0 2.88253 0 2.20675Z" fill="#259F83"/>
<path d="M4.72314 6.65222H18.6152" stroke="#259F83" stroke-width="3" stroke-linecap="round"/>
<path d="M0 6.65231C0 5.97653 0.530971 5.44556 1.20675 5.44556C1.88253 5.44556 2.4135 5.97653 2.4135 6.65231C2.4135 7.32809 1.88253 7.85906 1.20675 7.85906C0.530971 7.85906 0 7.32809 0 6.65231Z" fill="#259F83"/>
<path d="M4.72314 11.0977H18.6152" stroke="#259F83" stroke-width="3" stroke-linecap="round"/>
<path d="M0 11.0976C0 10.4218 0.530971 9.89087 1.20675 9.89087C1.88253 9.89087 2.4135 10.4218 2.4135 11.0976C2.4135 11.7734 1.88253 12.3044 1.20675 12.3044C0.530971 12.3044 0 11.7734 0 11.0976Z" fill="#259F83"/>
<path d="M4.72314 15.5432H18.6152" stroke="#259F83" stroke-width="3" stroke-linecap="round"/>
<path d="M0 15.5432C0 14.8674 0.530971 14.3364 1.20675 14.3364C1.88253 14.3364 2.4135 14.8674 2.4135 15.5432C2.4135 16.219 1.88253 16.7499 1.20675 16.7499C0.530971 16.7499 0 16.219 0 15.5432Z" fill="#259F83"/>
<ellipse cx="14.5961" cy="12.2116" rx="4.44231" ry="4.44231" fill="white" fill-opacity="0.7"/>
<path d="M14.8107 7.08882H14.8728L14.8882 7.07345C17.8115 7.10668 20.1795 9.49508 20.1795 12.4262C20.1795 13.3412 19.9201 14.2127 19.5063 14.9638L19.4392 15.0856L19.5556 15.1617C19.6376 15.2154 19.7139 15.2773 19.7831 15.3466L19.7832 15.3467L21.3555 16.919L21.3553 16.9191L21.3619 16.925C21.51 17.0566 21.6296 17.2171 21.7134 17.3966C21.7972 17.5761 21.8435 17.7709 21.8493 17.9689C21.8551 18.1669 21.8204 18.364 21.7473 18.5482C21.6742 18.7323 21.5642 18.8995 21.4241 19.0396C21.284 19.1797 21.1168 19.2897 20.9327 19.3628C20.7486 19.4359 20.5514 19.4706 20.3534 19.4648C20.1554 19.4589 19.9606 19.4127 19.7811 19.3289C19.6016 19.2451 19.4411 19.1254 19.3095 18.9774L19.3097 18.9772L19.3035 18.9709L17.7312 17.3986L17.7316 17.3982L17.721 17.3893C17.6538 17.3335 17.5919 17.2716 17.5361 17.2044L17.4569 17.1091L17.3483 17.1689C16.602 17.5802 15.7154 17.7949 14.8107 17.7949C11.859 17.7949 9.45762 15.3936 9.45762 12.4419C9.45762 9.49018 11.859 7.08882 14.8107 7.08882ZM14.8107 8.36112H14.7485L14.7324 8.37731C12.4934 8.41029 10.7142 10.2102 10.7142 12.4576C10.7142 14.726 12.5266 16.5384 14.795 16.5384C15.8522 16.5384 16.8321 16.1642 17.5531 15.5088L17.5608 15.5017L17.5675 15.4937C17.6233 15.4265 17.6852 15.3646 17.7524 15.3088L17.7528 15.3093L17.7626 15.2995L17.8098 15.2523L17.8098 15.2524L17.8134 15.2486C18.5007 14.5122 18.8914 13.5161 18.8914 12.4419C18.8914 10.1735 17.079 8.36112 14.8107 8.36112Z" fill="#259F83" stroke="white" stroke-width="0.3"/>
<path d="M14 2H18" stroke="white" stroke-width="1.1" stroke-linecap="round"/>
<path d="M14 6.30005H18" stroke="white" stroke-width="1.1" stroke-linecap="round"/>
<path d="M29.318 17H27.778V8.6H26.168V7.2H30.928V8.6H29.318V17ZM33.7194 9.72C33.8874 9.72 34.0274 9.748 34.1394 9.804V11.246C34.0274 11.218 33.9014 11.204 33.7614 11.204C32.9214 11.204 32.5014 11.764 32.5014 12.884V17H31.0174V9.86H32.3054L32.3334 11.064C32.5294 10.168 32.9914 9.72 33.7194 9.72ZM38.9918 17H37.6338C37.5638 16.874 37.5358 16.594 37.5218 16.16C37.2418 16.818 36.7378 17.14 36.0098 17.14C35.0578 17.14 34.4558 16.454 34.4558 15.348C34.4558 14.228 34.9318 13.584 36.1778 12.968C36.6958 12.716 37.0178 12.534 37.1438 12.422C37.2698 12.296 37.3398 12.142 37.3398 11.946V11.806C37.3398 11.26 37.1438 10.994 36.7378 10.994C36.2898 10.994 36.0658 11.274 36.0658 11.82V12.086H34.6658V11.904C34.6658 10.504 35.3938 9.72 36.7518 9.72C38.2078 9.72 38.8238 10.462 38.8238 12.072V14.942C38.8238 15.852 38.8798 16.538 38.9918 17ZM36.5698 15.866C37.0878 15.866 37.3398 15.474 37.3398 14.676V13.458C37.2698 13.542 37.0178 13.724 36.6118 13.99C36.1638 14.27 35.9398 14.634 35.9398 15.096C35.9398 15.614 36.1498 15.866 36.5698 15.866ZM39.8188 14.844V12.016C39.8188 10.546 40.5888 9.72 41.9888 9.72C43.3888 9.72 44.1028 10.574 44.1028 12.016V12.45H42.6748V11.876C42.6748 11.316 42.4508 11.036 41.9888 11.036C41.5268 11.036 41.3028 11.316 41.3028 11.876V14.984C41.3028 15.544 41.5268 15.824 41.9888 15.824C42.4508 15.824 42.6748 15.544 42.6748 14.984V14.27H44.1028V14.844C44.1028 16.286 43.3888 17.14 41.9888 17.14C40.5888 17.14 39.8188 16.314 39.8188 14.844ZM49.833 17H48.237L47.117 14.046L46.515 15.012V17H45.031V7.2H46.515V12.856L48.167 9.86H49.749L48.097 12.492L49.833 17ZM54.323 17H52.783V7.2H55.065C56.647 7.2 57.347 7.928 57.347 9.454V10.056C57.347 11.078 57.011 11.722 56.339 11.988V12.016C57.025 12.226 57.361 12.926 57.361 14.088V15.81C57.361 16.342 57.417 16.734 57.529 17H55.961C55.863 16.72 55.821 16.314 55.821 15.796V14.004C55.821 13.108 55.569 12.8 54.855 12.8H54.323V17ZM54.323 8.6V11.4H54.883C55.499 11.4 55.807 11.106 55.807 10.364V9.608C55.807 8.936 55.541 8.6 55.023 8.6H54.323ZM62.7128 12.044V13.752H59.8008V14.956C59.8008 15.53 60.0528 15.824 60.5428 15.824C61.0328 15.824 61.2848 15.53 61.2848 14.956V14.69H62.7128V14.816C62.7128 16.314 61.9288 17.14 60.5148 17.14C59.1008 17.14 58.3168 16.314 58.3168 14.816V12.044C58.3168 10.546 59.1008 9.72 60.5148 9.72C61.9288 9.72 62.7128 10.546 62.7128 12.044ZM59.8008 11.904V12.576H61.2568V11.904C61.2568 11.33 61.0188 11.036 60.5288 11.036C60.0388 11.036 59.8008 11.33 59.8008 11.904ZM63.5805 14.844V12.016C63.5805 10.546 64.3505 9.72 65.7505 9.72C67.1505 9.72 67.8645 10.574 67.8645 12.016V12.45H66.4365V11.876C66.4365 11.316 66.2125 11.036 65.7505 11.036C65.2885 11.036 65.0645 11.316 65.0645 11.876V14.984C65.0645 15.544 65.2885 15.824 65.7505 15.824C66.2125 15.824 66.4365 15.544 66.4365 14.984V14.27H67.8645V14.844C67.8645 16.286 67.1505 17.14 65.7505 17.14C64.3505 17.14 63.5805 16.314 63.5805 14.844ZM68.6801 14.816V12.044C68.6801 10.546 69.4641 9.72 70.8641 9.72C72.2641 9.72 73.0481 10.546 73.0481 12.044V14.816C73.0481 16.314 72.2641 17.14 70.8641 17.14C69.4641 17.14 68.6801 16.314 68.6801 14.816ZM71.5641 14.956V11.904C71.5641 11.33 71.3261 11.036 70.8641 11.036C70.4021 11.036 70.1641 11.33 70.1641 11.904V14.956C70.1641 15.53 70.4021 15.824 70.8641 15.824C71.3261 15.824 71.5641 15.53 71.5641 14.956ZM76.7584 9.72C76.9264 9.72 77.0664 9.748 77.1784 9.804V11.246C77.0664 11.218 76.9404 11.204 76.8004 11.204C75.9604 11.204 75.5404 11.764 75.5404 12.884V17H74.0564V9.86H75.3444L75.3724 11.064C75.5684 10.168 76.0304 9.72 76.7584 9.72ZM82.2815 17H80.9235C80.8675 16.888 80.8255 16.608 80.7975 16.16C80.5315 16.818 80.0415 17.14 79.3555 17.14C78.2775 17.14 77.7455 16.44 77.7455 15.054V11.806C77.7455 10.42 78.2775 9.72 79.3555 9.72C79.9015 9.72 80.3215 9.944 80.6295 10.378V7.2H82.1135V14.942C82.1135 15.852 82.1695 16.538 82.2815 17ZM79.8595 15.824C80.3775 15.824 80.6295 15.446 80.6295 14.676V12.184C80.6295 11.414 80.3775 11.036 79.8595 11.036C79.4395 11.036 79.2295 11.33 79.2295 11.904V14.956C79.2295 15.53 79.4395 15.824 79.8595 15.824Z" fill="#259F83"/>
</svg>
