<svg width="53" height="55" viewBox="0 0 53 55" fill="none" xmlns="http://www.w3.org/2000/svg">
<circle cx="26.5" cy="28.5" r="25" stroke="white" stroke-width="3"/>
<path d="M31.94 29.645H23.68C21.195 29.645 19.795 31.08 19.795 33.425C19.795 34.545 20.215 35.49 21.02 36.225C21.755 36.925 22.63 37.275 23.575 37.275H28.755V40.67H23.295C21.335 40.67 19.655 39.97 18.255 38.57C16.89 37.205 16.19 35.525 16.19 33.565C16.19 31.675 16.75 30.03 17.835 28.595C18.99 27.09 20.46 26.285 22.315 26.18C22.035 25.935 21.79 25.62 21.58 25.27C21.09 24.465 20.845 23.485 20.845 22.365C20.81 20.545 21.475 19.11 22.77 18.06C23.855 17.185 25.185 16.73 26.725 16.73C28.79 16.73 30.435 17.465 31.66 18.97L29.735 21.56C28.86 20.755 28.02 20.335 27.145 20.335C25.64 20.335 24.555 21.42 24.555 22.96C24.555 25.095 25.92 26.18 28.615 26.18H31.94V29.645Z" fill="white"/>
</svg>
