<svg width="25" height="25" viewBox="0 0 25 25" fill="none" xmlns="http://www.w3.org/2000/svg">
<path d="M17.1398 24.5H18.9513H21.9781H24.5V0.5H22.2074L17.1168 0.5H14.3652H12.1135V4.5H16.5284C18.168 4.5 19.4972 5.82915 19.4972 7.46875C19.4972 9.10834 18.168 10.4375 16.5284 10.4375H12.1135V14.5625H16.4825C18.1221 14.5625 19.4513 15.8917 19.4513 17.5312C19.4513 19.1708 18.1221 20.5 16.4825 20.5H12.1364V22.5V24.5H15.1448H17.1398Z" stroke="#FAAF40"/>
<path d="M7.86022 24.5H6.04871L3.02187 24.5H0.5L0.5 0.5L2.79257 0.5L7.88315 0.5L10.6348 0.5L12.8865 0.5V4.5L8.47159 4.5C6.832 4.5 5.50285 5.82915 5.50285 7.46875C5.50285 9.10834 6.832 10.4375 8.47159 10.4375L12.8865 10.4375V14.5625L8.51746 14.5625C6.87786 14.5625 5.54871 15.8917 5.54871 17.5312C5.54871 19.1708 6.87786 20.5 8.51746 20.5L12.8636 20.5V22.5V24.5L9.85518 24.5H7.86022Z" fill="#FAAF40" stroke="#FAAF40"/>
<path d="M16.1443 4.25H16.5387C17.6432 4.25 18.5387 5.14543 18.5387 6.25C18.5387 7.35457 17.6432 8.25 16.5387 8.25H13.5891V4.25H16.1443Z" fill="#FAAF40" stroke="#FAAF40"/>
<path d="M16.1443 14.25H16.5387C17.6432 14.25 18.5387 15.1454 18.5387 16.25C18.5387 17.3546 17.6432 18.25 16.5387 18.25H13.5891V14.25H16.1443Z" fill="#FAAF40" stroke="#FAAF40"/>
</svg>
