<svg width="1300" height="1571" viewBox="0 0 1300 1571" fill="none" xmlns="http://www.w3.org/2000/svg">
<path d="M596.688 15.5946C629.265 -4.93391 670.735 -4.93389 703.312 15.5946L973.25 185.694L1250.99 354.324C1281.09 372.596 1299.36 405.347 1299.09 440.554L1296.5 785.571L1299.09 1130.59C1299.36 1165.8 1281.09 1198.55 1250.99 1216.82L973.25 1385.45L703.312 1555.55C670.735 1576.08 629.265 1576.08 596.688 1555.55L326.75 1385.45L49.0069 1216.82C18.9119 1198.55 0.642975 1165.8 0.907516 1130.59L3.5 785.571L0.907516 440.554C0.642975 405.347 18.912 372.595 49.007 354.324L326.75 185.694L596.688 15.5946Z" fill="#00A651"/>
</svg>
