<svg width="3000" height="2500" viewBox="0 0 3000 2500" fill="none" xmlns="http://www.w3.org/2000/svg">
<rect width="3000" height="2500" fill="#00A651"/>
<path d="M1446.69 479.595C1479.26 459.066 1520.74 459.066 1553.31 479.595L1823.25 649.694L2100.99 818.324C2131.09 836.596 2149.36 869.347 2149.09 904.554L2146.5 1249.57L2149.09 1594.59C2149.36 1629.8 2131.09 1662.55 2100.99 1680.82L1823.25 1849.45L1553.31 2019.55C1520.74 2040.08 1479.26 2040.08 1446.69 2019.55L1176.75 1849.45L899.007 1680.82C868.912 1662.55 850.643 1629.8 850.908 1594.59L853.5 1249.57L850.908 904.554C850.643 869.347 868.912 836.595 899.007 818.324L1176.75 649.694L1446.69 479.595Z" fill="white"/>
</svg>
