<svg width="44" height="47" viewBox="0 0 44 47" fill="#00a651" xmlns="http://www.w3.org/2000/svg">
<path  d="M44 44.6146L28.094 28.3316C31.0001 25.242 32.636 21.127 32.6637 16.8371C32.6913 12.5472 31.1085 8.41047 28.2425 5.28192C25.3765 2.15337 21.4463 0.272214 17.2644 0.0273031C13.0825 -0.217608 8.96858 1.19236 5.77302 3.96592C2.57746 6.73947 0.544596 10.6646 0.0945768 14.9297C-0.355442 19.1948 0.811798 23.4739 3.35507 26.8826C5.89833 30.2913 9.62315 32.5689 13.7596 33.2446C17.896 33.9203 22.1279 32.9426 25.5803 30.5133L41.678 47L44 44.6146ZM3.4043 16.7318C3.4043 14.0982 4.16685 11.5238 5.5955 9.33399C7.02414 7.1442 9.05474 5.43735 11.4305 4.4295C13.8062 3.42165 16.4204 3.15809 18.9425 3.67189C21.4646 4.18569 23.7812 5.45386 25.5995 7.31612C27.4179 9.17839 28.6562 11.551 29.1579 14.1341C29.6595 16.7171 29.402 19.3946 28.418 21.8277C27.4339 24.2609 25.7674 26.3406 23.6293 27.8037C21.4912 29.2669 18.9774 30.0478 16.4059 30.0478C12.9588 30.0439 9.65399 28.6398 7.21651 26.1434C4.77903 23.6471 3.40806 20.2622 3.4043 16.7318Z"/>
</svg>
