<svg width="96" height="43" viewBox="0 0 96 43" fill="none" xmlns="http://www.w3.org/2000/svg">
<path d="M48.874 25.7539V24.8495H50.5855V25.893C50.5855 27.3308 51.21 28.0496 52.4589 28.0496C53.7309 28.0496 54.3554 27.3308 54.3554 25.8699C54.3554 25.1278 54.1704 24.4785 53.8003 23.8988C53.4534 23.3191 52.8058 22.6466 51.8575 21.8582C50.7474 20.9538 49.961 20.119 49.5216 19.377C49.0822 18.6349 48.874 17.8001 48.874 16.8726C48.874 14.4377 50.1923 13 52.5051 13C54.8179 13 56.0669 14.4145 56.0669 16.9189V17.5682H54.3554V16.803C54.3554 15.3653 53.7309 14.6464 52.5051 14.6464C51.2793 14.6464 50.6549 15.3421 50.6549 16.7566C50.6549 17.4291 50.8399 18.032 51.21 18.5885C51.58 19.1451 52.2507 19.8175 53.2221 20.606C54.3322 21.5335 55.0955 22.3683 55.5118 23.1336C55.9512 23.8756 56.1594 24.7336 56.1594 25.7307C56.1594 28.2583 54.8179 29.696 52.482 29.696C50.1461 29.696 48.874 28.2815 48.874 25.7539Z" fill="#44566C"/>
<path d="M61.0889 17.5682C63.3092 17.5682 64.535 18.9132 64.535 21.3248V23.8988H59.4005V26.0786C59.4005 27.4467 59.9787 28.1424 61.112 28.1424C62.2684 28.1424 62.8466 27.4467 62.8466 26.0786V25.7307H64.535V25.9162C64.535 28.3279 63.3092 29.696 61.0889 29.696C58.8686 29.696 57.6428 28.3279 57.6428 25.9162V21.3248C57.6428 18.9132 58.8455 17.5682 61.0889 17.5682ZM59.4005 21.1625V22.4611H62.8235V21.1625C62.8235 19.7944 62.2453 19.1219 61.0889 19.1219C59.9556 19.1219 59.4005 19.7944 59.4005 21.1625Z" fill="#44566C"/>
<path d="M73.0026 29.4641H71.4067C71.3373 29.2091 71.268 28.6989 71.2217 27.8873C70.736 29.0931 69.834 29.696 68.5157 29.696C66.9199 29.696 65.9254 28.583 65.9254 26.8206C65.9254 25.0351 66.7117 23.9916 68.8164 22.9944C69.7878 22.5538 70.3891 22.2292 70.6435 22.0205C70.8979 21.8118 71.0136 21.4872 71.0136 21.0929V20.8147C71.0136 19.6552 70.5047 19.0755 69.5102 19.0755C68.4926 19.0755 67.8913 19.7248 67.8913 20.861V21.2089H66.2492V20.9538C66.2492 18.7972 67.4287 17.5682 69.5334 17.5682C71.6843 17.5682 72.7482 18.7509 72.7482 21.0929V26.2873C72.7482 27.7018 72.8407 28.7453 73.0026 29.4641ZM69.117 28.1656C70.2966 28.1656 71.0136 27.1916 71.0136 25.522V23.1799C70.8285 23.435 70.2735 23.7829 69.3252 24.2698C68.2382 24.8264 67.6831 25.5916 67.6831 26.5655C67.6831 27.6322 68.1688 28.1656 69.117 28.1656Z" fill="#44566C"/>
<path d="M78.8814 17.5682C79.2052 17.5682 79.4596 17.6146 79.6447 17.7074V19.4233C79.4365 19.3538 79.2052 19.3074 78.9277 19.3074C77.4244 19.3074 76.6611 20.4205 76.6611 22.6698V29.4641H74.9265V17.8001H76.4299L76.453 19.7248C76.8462 18.2871 77.6556 17.5682 78.8814 17.5682Z" fill="#44566C"/>
<path d="M84.0804 29.696C81.8601 29.696 80.6805 28.3743 80.6805 25.9626V21.2785C80.6805 18.8668 81.8601 17.5682 84.0804 17.5682C86.2775 17.5682 87.4108 18.9364 87.4108 21.2785V21.7886H85.7225V21.1161C85.7225 19.7944 85.1674 19.1219 84.0804 19.1219C82.9933 19.1219 82.4383 19.7944 82.4383 21.1161V26.1249C82.4383 27.4699 82.9933 28.1424 84.0804 28.1424C85.1674 28.1424 85.7225 27.4699 85.7225 26.1249V25.2206H87.4108V25.9626C87.4108 28.3511 86.2775 29.696 84.0804 29.696Z" fill="#44566C"/>
<path d="M93.3171 17.5682C95.098 17.5682 96 18.6813 96 20.9306V29.4641H94.2423V21.1625C94.2423 19.7944 93.7566 19.1219 92.7852 19.1219C91.6982 19.1219 90.9581 20.0494 90.9581 21.719V29.4641H89.2235V13.2319H90.9581V18.9132C91.49 18.0088 92.2764 17.5682 93.3171 17.5682Z" fill="#44566C"/>
<path fillRule="evenodd" clipRule="evenodd" d="M41.6743 41.7749C42.3011 41.1725 42.3002 40.1693 41.6723 39.568L29.3695 27.7865C28.4565 26.9122 28.4592 25.4655 29.2088 24.4476C31.0255 21.9808 32.0269 19.0259 32.0479 15.9712C32.0742 12.1568 30.5697 8.47843 27.8455 5.69658C25.1212 2.91474 21.3855 1.24205 17.4104 1.02428C13.4354 0.806506 9.52494 2.06022 6.48745 4.52642C3.44996 6.99261 1.51766 10.4827 1.0899 14.2752C0.66214 18.0677 1.77164 21.8725 4.1891 24.9035C6.60657 27.9344 10.1471 29.9596 14.079 30.5605C17.4106 31.0696 20.8074 30.5231 23.7634 29.0302C24.7002 28.557 25.8524 28.6468 26.6102 29.3728L39.557 41.7765C40.149 42.3437 41.0831 42.343 41.6743 41.7749V41.7749ZM4.23641 15.8793C4.23641 13.5376 4.96124 11.2485 6.31922 9.30133C7.6772 7.35421 9.60735 5.83651 11.8656 4.94035C14.1238 4.04419 16.6087 3.80984 19.006 4.2667C21.4033 4.72356 23.6054 5.85119 25.3338 7.50708C27.0621 9.16297 28.2392 11.2727 28.7161 13.5695C29.1929 15.8663 28.9482 18.247 28.0128 20.4105C27.0774 22.574 25.4933 24.4232 23.461 25.7243C21.4286 27.0253 19.0392 27.7197 16.5949 27.7197C13.3183 27.7162 10.177 26.4677 7.86005 24.248C5.54314 22.0282 4.23998 19.0185 4.23641 15.8793Z" fill="#44566C"/>
<path d="M32.0479 15.9712L32.5354 15.9746L32.5354 15.9746L32.0479 15.9712ZM27.8455 5.69658L28.1938 5.35549L28.1938 5.35549L27.8455 5.69658ZM17.4104 1.02428L17.3838 1.51105L17.3838 1.51105L17.4104 1.02428ZM6.48745 4.52642L6.79473 4.90488L6.48745 4.52642ZM1.0899 14.2752L0.60547 14.2205L0.60547 14.2205L1.0899 14.2752ZM4.1891 24.9035L3.80798 25.2075L3.80798 25.2075L4.1891 24.9035ZM14.079 30.5605L14.1526 30.0786L14.1526 30.0786L14.079 30.5605ZM4.23641 15.8793L3.74891 15.8793L3.74891 15.8799L4.23641 15.8793ZM6.31922 9.30133L5.91936 9.02246L5.91936 9.02246L6.31922 9.30133ZM11.8656 4.94035L12.0454 5.39348L12.0454 5.39348L11.8656 4.94035ZM19.006 4.2667L18.9147 4.74558L18.9147 4.74558L19.006 4.2667ZM25.3338 7.50708L25.671 7.15506L25.671 7.15506L25.3338 7.50708ZM28.7161 13.5695L29.1934 13.4704L29.1934 13.4704L28.7161 13.5695ZM28.0128 20.4105L28.4602 20.604L28.4602 20.604L28.0128 20.4105ZM23.461 25.7243L23.1981 25.3137L23.1981 25.3137L23.461 25.7243ZM16.5949 27.7197L16.5944 28.2072H16.5949V27.7197ZM7.86005 24.248L7.52279 24.6L7.52279 24.6L7.86005 24.248ZM23.7634 29.0302L23.9831 29.4653L23.7634 29.0302ZM26.6102 29.3728L26.9475 29.0208L26.6102 29.3728ZM29.3695 27.7865L29.0324 28.1386L29.3695 27.7865ZM29.2088 24.4476L28.8163 24.1586L29.2088 24.4476ZM39.557 41.7765L39.2197 42.1285L39.557 41.7765ZM41.6723 39.568L42.0095 39.2159L41.6723 39.568ZM42.0095 39.2159L29.7067 27.4344L29.0324 28.1386L41.3351 39.9201L42.0095 39.2159ZM29.6014 24.7367C31.4777 22.1889 32.5137 19.1343 32.5354 15.9746L31.5604 15.9679C31.5401 18.9174 30.5733 21.7728 28.8163 24.1586L29.6014 24.7367ZM32.5354 15.9746C32.5626 12.0285 31.006 8.22715 28.1938 5.35549L27.4972 6.03767C30.1335 8.72971 31.5858 12.2851 31.5604 15.9679L32.5354 15.9746ZM28.1938 5.35549C25.3822 2.48447 21.5308 0.761777 17.4371 0.537508L17.3838 1.51105C21.2402 1.72232 24.8603 3.34501 27.4972 6.03768L28.1938 5.35549ZM17.4371 0.537508C13.3435 0.313241 9.31347 1.60397 6.18017 4.14795L6.79473 4.90488C9.73642 2.51648 13.5273 1.29977 17.3838 1.51105L17.4371 0.537508ZM6.18017 4.14795C3.04625 6.69243 1.04795 10.2976 0.60547 14.2205L1.57433 14.3298C1.98736 10.6679 3.85367 7.29278 6.79473 4.90488L6.18017 4.14795ZM0.60547 14.2205C0.162961 18.1438 1.31132 22.0772 3.80798 25.2075L4.57022 24.5995C2.23197 21.6679 1.16132 17.9915 1.57433 14.3298L0.60547 14.2205ZM3.80798 25.2075C6.30408 28.337 9.95574 30.4236 14.0053 31.0424L14.1526 30.0786C10.3385 29.4957 6.90906 27.5319 4.57022 24.5995L3.80798 25.2075ZM14.0053 31.0424C17.4369 31.5667 20.9363 31.0041 23.9831 29.4653L23.5436 28.595C20.6785 30.042 17.3844 30.5724 14.1526 30.0786L14.0053 31.0424ZM26.273 29.7248L39.2197 42.1285L39.8942 41.4245L26.9475 29.0208L26.273 29.7248ZM4.72391 15.8793C4.72391 13.6388 5.41731 11.4467 6.71908 9.5802L5.91936 9.02246C4.50517 11.0502 3.74891 13.4364 3.74891 15.8793H4.72391ZM6.71908 9.5802C8.02104 7.7134 9.87381 6.25525 12.0454 5.39348L11.6858 4.48723C9.34088 5.41777 7.33335 6.99502 5.91936 9.02246L6.71908 9.5802ZM12.0454 5.39348C14.2171 4.53164 16.6079 4.30597 18.9147 4.74558L19.0972 3.78782C16.6094 3.31371 14.0305 3.55674 11.6858 4.48723L12.0454 5.39348ZM18.9147 4.74558C21.2214 5.18517 23.3376 6.26972 24.9965 7.8591L25.671 7.15506C23.8732 5.43267 21.5852 4.26194 19.0972 3.78782L18.9147 4.74558ZM24.9965 7.8591C26.6552 9.44827 27.7824 11.4704 28.2387 13.6686L29.1934 13.4704C28.6961 11.075 27.469 8.87767 25.671 7.15506L24.9965 7.8591ZM28.2387 13.6686C28.6951 15.8666 28.4611 18.1452 27.5653 20.2171L28.4602 20.604C29.4352 18.3488 29.6908 15.8659 29.1934 13.4704L28.2387 13.6686ZM27.5653 20.2171C26.6694 22.2892 25.1508 24.0637 23.1981 25.3137L23.7238 26.1349C25.8359 24.7828 27.4853 22.8589 28.4602 20.604L27.5653 20.2171ZM23.1981 25.3137C21.2453 26.5638 18.9473 27.2322 16.5949 27.2322V28.2072C19.1311 28.2072 21.6119 27.4868 23.7238 26.1349L23.1981 25.3137ZM16.5954 27.2322C13.4414 27.2289 10.4215 26.0269 8.1973 23.896L7.52279 24.6C9.93244 26.9086 13.1953 28.2036 16.5944 28.2072L16.5954 27.2322ZM8.1973 23.896C5.97385 21.7658 4.72733 18.882 4.72391 15.8788L3.74891 15.8799C3.75264 19.1551 5.11244 22.2907 7.52279 24.6L8.1973 23.896ZM23.9831 29.4653C24.765 29.0704 25.687 29.1634 26.273 29.7248L26.9475 29.0208C26.0178 28.1301 24.6354 28.0436 23.5436 28.595L23.9831 29.4653ZM29.7067 27.4344C29.0028 26.7604 28.969 25.5955 29.6014 24.7367L28.8163 24.1586C27.9495 25.3356 27.9102 27.064 29.0324 28.1386L29.7067 27.4344ZM39.2197 42.1285C40.0005 42.8766 41.2324 42.8756 42.012 42.1264L41.3365 41.4234C40.9338 41.8104 40.2975 41.8109 39.8942 41.4245L39.2197 42.1285ZM41.3351 39.9201C41.7629 40.3297 41.7635 41.013 41.3365 41.4234L42.012 42.1264C42.8388 41.3319 42.8376 40.0089 42.0095 39.2159L41.3351 39.9201Z" fill="#44566C"/>
</svg>
