<svg width="43" height="25" viewBox="0 0 43 25" fill="none" xmlns="http://www.w3.org/2000/svg">
<path fill-rule="evenodd" clip-rule="evenodd" d="M14.4494 7.51271H18.4938C19.4201 7.50267 20.312 7.86366 20.9706 8.51519C21.6292 9.16673 21.9998 10.0547 21.9997 10.9811C22.0117 11.9157 21.6513 12.8168 20.998 13.4853C20.6562 13.795 20.2561 14.0333 19.821 14.1865C19.4007 14.3624 18.9494 14.4518 18.4938 14.4494H14.4494V18.4938C14.4494 20.4093 12.8966 21.9621 10.9811 21.9621C9.06555 21.9621 7.51271 20.4093 7.51271 18.4938V14.4494H3.46837C1.55284 14.4494 0 12.8966 0 10.9811C0 9.06555 1.55284 7.51271 3.46837 7.51271H7.51271V3.46837C7.51271 1.55284 9.06555 0 10.9811 0C12.8966 0 14.4494 1.55284 14.4494 3.46837V7.51271ZM13.6856 10.2677H18.9195C19.0698 10.2763 19.2176 10.2271 19.3327 10.13C19.4348 10.0213 19.4928 9.87844 19.4955 9.72931C19.4947 9.57609 19.4367 9.42869 19.3327 9.31612C19.2223 9.2088 19.0735 9.15018 18.9195 9.15334H13.6856C13.5317 9.15018 13.3829 9.2088 13.2724 9.31612C13.1685 9.42869 13.1104 9.57609 13.1097 9.72931C13.1213 9.86783 13.1837 9.99716 13.285 10.0924C13.3877 10.2049 13.5333 10.2686 13.6856 10.2677Z" fill="#259F83"/>
<path d="M31.432 21H29.892L29.626 19.082H27.848L27.582 21H26.154L27.75 11.2H29.836L31.432 21ZM28.73 12.81L28.044 17.752H29.43L28.73 12.81ZM36.6038 21H35.2458C35.1898 20.888 35.1478 20.608 35.1198 20.16C34.8538 20.818 34.3638 21.14 33.6778 21.14C32.5998 21.14 32.0678 20.44 32.0678 19.054V15.806C32.0678 14.42 32.5998 13.72 33.6778 13.72C34.2238 13.72 34.6438 13.944 34.9518 14.378V11.2H36.4358V18.942C36.4358 19.852 36.4918 20.538 36.6038 21ZM34.1818 19.824C34.6998 19.824 34.9518 19.446 34.9518 18.676V16.184C34.9518 15.414 34.6998 15.036 34.1818 15.036C33.7618 15.036 33.5518 15.33 33.5518 15.904V18.956C33.5518 19.53 33.7618 19.824 34.1818 19.824ZM42.0179 21H40.6599C40.6039 20.888 40.5619 20.608 40.5339 20.16C40.2679 20.818 39.7779 21.14 39.0919 21.14C38.0139 21.14 37.4819 20.44 37.4819 19.054V15.806C37.4819 14.42 38.0139 13.72 39.0919 13.72C39.6379 13.72 40.0579 13.944 40.3659 14.378V11.2H41.8499V18.942C41.8499 19.852 41.9059 20.538 42.0179 21ZM39.5959 19.824C40.1139 19.824 40.3659 19.446 40.3659 18.676V16.184C40.3659 15.414 40.1139 15.036 39.5959 15.036C39.1759 15.036 38.9659 15.33 38.9659 15.904V18.956C38.9659 19.53 39.1759 19.824 39.5959 19.824Z" fill="#259F83"/>
</svg>
