<svg width="72" height="23" viewBox="0 0 72 23" fill="none" xmlns="http://www.w3.org/2000/svg">
<circle cx="16" cy="19" r="2" fill="#259F83"/>
<path d="M17.3115 18.1887C17.5876 18.1887 17.8115 18.4126 17.8115 18.6887C17.8115 18.9649 17.5876 19.1887 17.3115 19.1887C17.0353 19.1887 17.3114 18.9649 17.3114 18.6887C17.3114 18.4126 17.0353 18.1887 17.3115 18.1887Z" fill="white"/>
<circle cx="6.00006" cy="19" r="2" transform="rotate(-45 6.00006 19)" fill="#259F83"/>
<path d="M6.3538 17.499C6.54906 17.3037 6.86564 17.3037 7.0609 17.499C7.25617 17.6942 7.25617 18.0108 7.0609 18.2061C6.86564 18.4013 6.90258 18.0478 6.70732 17.8525C6.51205 17.6573 6.15854 17.6942 6.3538 17.499Z" fill="white"/>
<path d="M17.4269 13.5H5.07075C5.02835 13.5 4.99056 13.4733 4.97645 13.4333L2.04704 5.13328C2.02408 5.06822 2.07234 5 2.14134 5H20.125L19.25 8L17.5222 13.4303C17.509 13.4718 17.4704 13.5 17.4269 13.5Z" fill="#259F83"/>
<path d="M29 2H21.075C21.0306 2 20.9914 2.02933 20.979 2.072L20.125 5M20.125 5H2.14134C2.07234 5 2.02408 5.06822 2.04704 5.13328L4.97645 13.4333C4.99056 13.4733 5.02835 13.5 5.07075 13.5H17.4269C17.4704 13.5 17.509 13.4718 17.5222 13.4303L19.25 8L20.125 5Z" stroke="#259F83" stroke-width="3" stroke-linecap="round"/>
<path d="M24.75 1.75H28.75" stroke="white" stroke-width="1.1" stroke-linecap="round"/>
<path d="M30.926 19H28.574V9.2H30.926C32.452 9.2 33.222 10.012 33.222 11.622V16.578C33.222 18.188 32.452 19 30.926 19ZM30.114 10.6V17.6H30.898C31.416 17.6 31.682 17.278 31.682 16.648V11.552C31.682 10.922 31.416 10.6 30.898 10.6H30.114ZM35.7455 10.978H34.2615V9.354H35.7455V10.978ZM35.7455 19H34.2615V11.86H35.7455V19ZM38.7762 19.14C37.4182 19.14 36.6202 18.342 36.6202 16.956V16.732H38.0482V16.998C38.0482 17.572 38.2722 17.866 38.7062 17.866C39.1402 17.866 39.3502 17.614 39.3502 17.096C39.3502 16.928 39.2942 16.774 39.1822 16.634C38.9722 16.34 38.8042 16.242 38.3142 15.962C38.0482 15.808 37.8522 15.696 37.7262 15.598C37.6002 15.5 37.4322 15.374 37.2362 15.192C36.8582 14.814 36.6902 14.324 36.6902 13.694C36.6902 12.476 37.4042 11.72 38.6922 11.72C39.9242 11.72 40.6942 12.518 40.6942 13.806V13.96H39.2942V13.764C39.2942 13.246 39.0982 12.994 38.7062 12.994C38.3282 12.994 38.1322 13.218 38.1322 13.666C38.1322 14.184 38.4962 14.492 39.2242 14.884C39.7282 15.164 39.9382 15.29 40.2882 15.64C40.6662 15.99 40.8202 16.466 40.8202 17.068C40.8202 18.356 40.1062 19.14 38.7762 19.14ZM44.5986 11.86V13.12H43.5206V17.208C43.5206 17.656 43.6886 17.824 44.0946 17.824C44.2486 17.824 44.4166 17.796 44.5986 17.74V19C44.3606 19.098 44.0806 19.14 43.7866 19.14C42.6246 19.14 42.0366 18.566 42.0366 17.404V13.12H41.2246V11.86H42.1066L42.2466 9.928H43.5206V11.86H44.5986ZM48.1334 11.72C48.3014 11.72 48.4414 11.748 48.5534 11.804V13.246C48.4414 13.218 48.3154 13.204 48.1754 13.204C47.3354 13.204 46.9154 13.764 46.9154 14.884V19H45.4314V11.86H46.7194L46.7474 13.064C46.9434 12.168 47.4054 11.72 48.1334 11.72ZM50.7299 10.978H49.2459V9.354H50.7299V10.978ZM50.7299 19H49.2459V11.86H50.7299V19ZM54.6285 11.72C55.7065 11.72 56.2525 12.42 56.2525 13.806V17.054C56.2525 18.44 55.7065 19.14 54.6285 19.14C53.9425 19.14 53.3965 18.734 53.1585 18.048L52.9625 19H51.8845V9.2H53.3685V12.378C53.6765 11.944 54.0965 11.72 54.6285 11.72ZM54.7685 16.956V13.904C54.7685 13.33 54.5585 13.036 54.1385 13.036C53.6205 13.036 53.3685 13.414 53.3685 14.184V16.676C53.3685 17.446 53.6205 17.824 54.1385 17.824C54.5585 17.824 54.7685 17.53 54.7685 16.956ZM60.1126 16.676V11.86H61.5966V19H60.3086L60.2806 18.174C60.0146 18.818 59.5386 19.14 58.8526 19.14C57.7886 19.14 57.2566 18.44 57.2566 17.054V11.86H58.7406V16.886C58.7406 17.516 58.9506 17.824 59.3566 17.824C59.8606 17.824 60.1126 17.446 60.1126 16.676ZM65.708 11.86V13.12H64.63V17.208C64.63 17.656 64.798 17.824 65.204 17.824C65.358 17.824 65.526 17.796 65.708 17.74V19C65.47 19.098 65.19 19.14 64.896 19.14C63.734 19.14 63.146 18.566 63.146 17.404V13.12H62.334V11.86H63.216L63.356 9.928H64.63V11.86H65.708ZM70.7831 14.044V15.752H67.8711V16.956C67.8711 17.53 68.1231 17.824 68.6131 17.824C69.1031 17.824 69.3551 17.53 69.3551 16.956V16.69H70.7831V16.816C70.7831 18.314 69.9991 19.14 68.5851 19.14C67.1711 19.14 66.3871 18.314 66.3871 16.816V14.044C66.3871 12.546 67.1711 11.72 68.5851 11.72C69.9991 11.72 70.7831 12.546 70.7831 14.044ZM67.8711 13.904V14.576H69.3271V13.904C69.3271 13.33 69.0891 13.036 68.5991 13.036C68.1091 13.036 67.8711 13.33 67.8711 13.904Z" fill="#259F83"/>
</svg>
