<svg width="157" height="62" viewBox="0 0 157 62" fill="none" xmlns="http://www.w3.org/2000/svg">
<path d="M76.1483 35H72.3083V18.2H76.1483C78.6683 18.2 79.9403 19.568 79.9403 22.28V30.92C79.9403 33.632 78.6683 35 76.1483 35ZM74.1803 19.904V33.296H76.1003C77.4443 33.296 78.0683 32.624 78.0683 30.992V22.184C78.0683 20.552 77.4443 19.904 76.1003 19.904H74.1803ZM83.8583 21.2H82.0583V18.608H83.8583V21.2ZM83.8583 35H82.0583V22.928H83.8583V35ZM89.1598 35.24C86.9518 35.24 85.6558 33.944 85.6558 31.76V31.352H87.4078V31.808C87.4078 33.032 87.9598 33.656 89.0638 33.656C90.1678 33.656 90.7198 33.08 90.7198 31.904C90.7198 31.544 90.5998 31.208 90.3838 30.92C89.9758 30.32 89.5198 30.08 88.6318 29.624C88.1518 29.36 87.7918 29.168 87.5758 29.024C87.3598 28.88 87.0718 28.664 86.7358 28.352C86.0638 27.752 85.7758 26.96 85.7758 25.904C85.7758 23.912 86.9998 22.688 89.0398 22.688C91.0318 22.688 92.3038 23.96 92.3038 26.048V26.288H90.5998V26C90.5998 24.824 90.0958 24.248 89.0638 24.248C88.1758 24.248 87.5278 24.824 87.5278 25.88C87.5278 26.264 87.6478 26.624 87.8638 26.936C88.3198 27.536 88.7278 27.752 89.6878 28.232C90.5758 28.688 90.9358 28.904 91.5838 29.504C92.2318 30.08 92.5198 30.848 92.5198 31.88C92.5198 33.968 91.2958 35.24 89.1598 35.24ZM98.9034 22.928V24.464H96.7194V32.288C96.7194 33.248 97.0314 33.632 97.8954 33.632C98.2554 33.632 98.5914 33.56 98.9034 33.44V35C98.5434 35.168 98.0874 35.24 97.5594 35.24C95.7834 35.24 94.8954 34.328 94.8954 32.48V24.464H93.4074V22.928H94.9674L95.1594 19.448H96.7194V22.928H98.9034ZM104.631 22.688C104.967 22.688 105.231 22.736 105.423 22.832V24.608C105.207 24.536 104.967 24.488 104.679 24.488C103.119 24.488 102.327 25.64 102.327 27.968V35H100.527V22.928H102.087L102.111 24.92C102.519 23.432 103.359 22.688 104.631 22.688ZM108.655 21.2H106.855V18.608H108.655V21.2ZM108.655 35H106.855V22.928H108.655V35ZM115.229 22.688C117.125 22.688 118.061 23.84 118.061 26.168V31.736C118.061 34.064 117.125 35.24 115.229 35.24C113.933 35.24 113.021 34.592 112.517 33.296L112.277 35H110.957V18.2H112.757V24.128C113.309 23.168 114.149 22.688 115.229 22.688ZM116.261 31.592V26.312C116.261 24.968 115.733 24.296 114.701 24.296C113.549 24.296 112.757 25.256 112.757 26.984V30.944C112.757 32.672 113.549 33.632 114.701 33.632C115.733 33.632 116.261 32.96 116.261 31.592ZM125.304 30.944V22.928H127.104V35H125.544L125.52 33.392C125.016 34.616 124.128 35.24 122.856 35.24C121.008 35.24 120.072 34.064 120.072 31.736V22.928H121.896V31.52C121.896 32.936 122.4 33.632 123.408 33.632C124.536 33.632 125.304 32.672 125.304 30.944ZM134.13 22.928V24.464H131.946V32.288C131.946 33.248 132.258 33.632 133.122 33.632C133.482 33.632 133.818 33.56 134.13 33.44V35C133.77 35.168 133.314 35.24 132.786 35.24C131.01 35.24 130.122 34.328 130.122 32.48V24.464H128.634V22.928H130.194L130.386 19.448H131.946V22.928H134.13ZM137.554 21.2H135.754V18.608H137.554V21.2ZM137.554 35H135.754V22.928H137.554V35ZM143.167 35.24C140.863 35.24 139.615 33.824 139.615 31.328V26.576C139.615 24.08 140.863 22.688 143.167 22.688C145.447 22.688 146.719 24.08 146.719 26.576V31.328C146.719 33.824 145.447 35.24 143.167 35.24ZM143.167 33.632C144.319 33.632 144.895 32.912 144.895 31.496V26.408C144.895 24.992 144.319 24.296 143.167 24.296C141.991 24.296 141.415 24.992 141.415 26.408V31.496C141.415 32.912 141.991 33.632 143.167 33.632ZM153.009 22.688C154.857 22.688 155.793 23.84 155.793 26.168V35H153.969V26.408C153.969 24.992 153.465 24.296 152.457 24.296C151.329 24.296 150.561 25.256 150.561 26.984V35H148.761V22.928H150.321L150.345 24.512C150.849 23.288 151.737 22.688 153.009 22.688Z" fill="#44566C"/>
<rect x="1" y="1" width="60" height="60" rx="21" stroke="#259F83" stroke-width="1.5"/>
<ellipse cx="35.0925" cy="44.7593" rx="3.24074" ry="3.24074" fill="#259F83"/>
<path d="M37.2313 43.813C37.6681 43.813 38.0223 44.17 38.0223 44.6102C38.0223 45.0505 37.6681 45.4075 37.2313 45.4075C36.7944 45.4075 37.2312 45.0505 37.2312 44.6102C37.2312 44.17 36.7944 43.813 37.2313 43.813Z" fill="white"/>
<circle cx="3.24074" cy="3.24074" r="3.24074" transform="matrix(0.692847 -0.721085 0.692847 0.721085 15.2224 44.8101)" fill="#259F83"/>
<path d="M18.8857 42.3753C19.1901 42.0586 19.6835 42.0586 19.9878 42.3753C20.2921 42.6921 20.2921 43.2056 19.9878 43.5223C19.6835 43.839 19.741 43.2656 19.4367 42.9489C19.1324 42.6322 18.5814 42.6921 18.8857 42.3753Z" fill="white"/>
<path d="M20.5836 27.4078C18.9317 26.7189 18.151 24.8213 18.84 23.1694L20.3369 19.5801L26.319 22.075L24.822 25.6642C24.1331 27.3161 22.2355 28.0968 20.5836 27.4078Z" stroke="#259F83" stroke-width="0.5" stroke-linecap="round"/>
<path d="M26.0723 14.2474C24.4204 13.5585 22.5228 14.3391 21.8339 15.991L20.3369 19.5803L26.319 22.0752L27.8159 18.4859C28.5049 16.834 27.7242 14.9364 26.0723 14.2474Z" fill="#259F83" stroke="#259F83" stroke-width="0.5" stroke-linecap="round"/>
<path d="M27.3589 17.4185L27.152 18.0327" stroke="white" stroke-width="0.5" stroke-linecap="round"/>
<path d="M26.1326 20.4172L26.5068 19.5199" stroke="white" stroke-width="0.5" stroke-linecap="round"/>
<path d="M34.4472 17.7404C36.0991 18.4293 36.8797 20.3269 36.1908 21.9788L34.6939 25.5681L28.7118 23.0732L30.2087 19.484C30.8977 17.8321 32.7953 17.0514 34.4472 17.7404Z" stroke="#259F83" stroke-width="0.5" stroke-linecap="round"/>
<path d="M28.9587 30.9008C30.6106 31.5897 32.5082 30.8091 33.1971 29.1572L34.6941 25.5679L28.712 23.073L27.2151 26.6623C26.5261 28.3142 27.3068 30.2118 28.9587 30.9008Z" fill="#259F83" stroke="#259F83" stroke-width="0.5" stroke-linecap="round"/>
<path d="M27.6721 27.73L27.879 27.1157" stroke="white" stroke-width="0.5" stroke-linecap="round"/>
<path d="M28.8984 24.731L28.5242 25.6283" stroke="white" stroke-width="0.5" stroke-linecap="round"/>
<path d="M35.0195 38.6017H18.9596C18.9172 38.6017 18.8795 38.575 18.8653 38.535L15.047 27.7165C15.0241 27.6514 15.0723 27.5832 15.1413 27.5832H38.4954L37.3611 31.4721L35.1148 38.5321C35.1016 38.5736 35.063 38.6017 35.0195 38.6017Z" fill="#259F83"/>
<path d="M50 23.6943H39.7046C39.6602 23.6943 39.6211 23.7237 39.6086 23.7663L38.4954 27.5832M38.4954 27.5832H15.1413C15.0723 27.5832 15.0241 27.6514 15.047 27.7165L18.8653 38.535C18.8795 38.575 18.9172 38.6017 18.9596 38.6017H35.0195C35.063 38.6017 35.1016 38.5736 35.1148 38.5321L37.3611 31.4721L38.4954 27.5832Z" stroke="#259F83" stroke-width="3" stroke-linecap="round"/>
<path d="M44.4907 23.3704H49.6759" stroke="white" stroke-width="1.1" stroke-linecap="round"/>
</svg>
