<svg width="42" height="42" viewBox="0 0 42 42" fill="none" xmlns="http://www.w3.org/2000/svg">
<path d="M24.926 24H22.574V14.2H24.926C26.452 14.2 27.222 15.012 27.222 16.622V21.578C27.222 23.188 26.452 24 24.926 24ZM24.114 15.6V22.6H24.898C25.416 22.6 25.682 22.278 25.682 21.648V16.552C25.682 15.922 25.416 15.6 24.898 15.6H24.114ZM30.9635 16.72C31.1315 16.72 31.2715 16.748 31.3835 16.804V18.246C31.2715 18.218 31.1455 18.204 31.0055 18.204C30.1655 18.204 29.7455 18.764 29.7455 19.884V24H28.2615V16.86H29.5495L29.5775 18.064C29.7735 17.168 30.2355 16.72 30.9635 16.72ZM34.89 21.676V16.86H36.374V24H35.086L35.058 23.174C34.792 23.818 34.316 24.14 33.63 24.14C32.566 24.14 32.034 23.44 32.034 22.054V16.86H33.518V21.886C33.518 22.516 33.728 22.824 34.134 22.824C34.638 22.824 34.89 22.446 34.89 21.676ZM40.4434 17.7L40.4714 16.86H41.7594V24.098C41.7594 25.554 41.1434 26.31 39.5614 26.31C38.1614 26.31 37.4334 25.638 37.4334 24.392V24.35H38.8614V24.462C38.8614 24.882 39.0854 25.092 39.5334 25.092C40.0234 25.092 40.2754 24.798 40.2754 24.21V23.132C39.9674 23.566 39.5474 23.79 39.0154 23.79C37.9374 23.79 37.3914 23.09 37.3914 21.704V18.806C37.3914 17.42 37.9374 16.72 39.0154 16.72C39.7014 16.72 40.1774 17.042 40.4434 17.7ZM39.5054 22.474C40.0234 22.474 40.2754 22.096 40.2754 21.326V19.184C40.2754 18.414 40.0234 18.036 39.5054 18.036C39.0854 18.036 38.8754 18.33 38.8754 18.904V21.606C38.8754 22.18 39.0854 22.474 39.5054 22.474Z" fill="#259F83"/>
<path d="M7 27.4C3.68629 27.4 1 24.7137 1 21.4L1 14.2H13V21.4C13 24.7137 10.3137 27.4 7 27.4Z" stroke="#259F83" stroke-width="2" stroke-linecap="round"/>
<path d="M7 1C3.68629 1 1 3.68629 1 7L1 14.2H13V7C13 3.68629 10.3137 1 7 1Z" fill="#259F83" stroke="#259F83" stroke-width="2" stroke-linecap="round"/>
<path d="M11.4578 5.50134L11.542 6.69839" stroke="white" stroke-width="1.1" stroke-linecap="round"/>
<path d="M11.5 11.5V9.7" stroke="white" stroke-width="1.1" stroke-linecap="round"/>
</svg>
