<svg width="149" height="62" viewBox="0 0 149 62" fill="none" xmlns="http://www.w3.org/2000/svg">
<path d="M75.0865 35H73.2145V18.2H75.0865V35ZM81.6109 22.688C83.4589 22.688 84.3949 23.84 84.3949 26.168V35H82.5709V26.408C82.5709 24.992 82.0669 24.296 81.0589 24.296C79.9309 24.296 79.1629 25.256 79.1629 26.984V35H77.3629V22.928H78.9229L78.9469 24.512C79.4509 23.288 80.3389 22.688 81.6109 22.688ZM89.5973 35.24C87.3893 35.24 86.0933 33.944 86.0933 31.76V31.352H87.8453V31.808C87.8453 33.032 88.3973 33.656 89.5013 33.656C90.6053 33.656 91.1573 33.08 91.1573 31.904C91.1573 31.544 91.0373 31.208 90.8213 30.92C90.4133 30.32 89.9573 30.08 89.0693 29.624C88.5893 29.36 88.2293 29.168 88.0133 29.024C87.7973 28.88 87.5093 28.664 87.1733 28.352C86.5013 27.752 86.2133 26.96 86.2133 25.904C86.2133 23.912 87.4373 22.688 89.4773 22.688C91.4693 22.688 92.7413 23.96 92.7413 26.048V26.288H91.0373V26C91.0373 24.824 90.5333 24.248 89.5013 24.248C88.6133 24.248 87.9653 24.824 87.9653 25.88C87.9653 26.264 88.0853 26.624 88.3013 26.936C88.7573 27.536 89.1653 27.752 90.1253 28.232C91.0133 28.688 91.3733 28.904 92.0213 29.504C92.6693 30.08 92.9573 30.848 92.9573 31.88C92.9573 33.968 91.7333 35.24 89.5973 35.24ZM99.0021 22.688C100.898 22.688 101.834 23.84 101.834 26.168V31.736C101.834 34.064 100.898 35.24 99.0021 35.24C97.9221 35.24 97.0821 34.76 96.5301 33.8V38.72H94.7301V22.928H96.2901L96.3141 24.56C96.8181 23.312 97.7061 22.688 99.0021 22.688ZM100.01 31.592V26.312C100.01 24.968 99.5061 24.296 98.4741 24.296C97.3221 24.296 96.5301 25.256 96.5301 26.984V30.944C96.5301 32.672 97.3221 33.632 98.4741 33.632C99.5061 33.632 100.01 32.96 100.01 31.592ZM107.277 22.688C109.581 22.688 110.853 24.08 110.853 26.576V29.24H105.525V31.496C105.525 32.912 106.125 33.632 107.301 33.632C108.501 33.632 109.101 32.912 109.101 31.496V31.136H110.853V31.328C110.853 33.824 109.581 35.24 107.277 35.24C104.973 35.24 103.701 33.824 103.701 31.328V26.576C103.701 24.08 104.949 22.688 107.277 22.688ZM105.525 26.408V27.752H109.077V26.408C109.077 24.992 108.477 24.296 107.277 24.296C106.101 24.296 105.525 24.992 105.525 26.408ZM116.159 35.24C113.855 35.24 112.631 33.872 112.631 31.376V26.528C112.631 24.032 113.855 22.688 116.159 22.688C118.439 22.688 119.615 24.104 119.615 26.528V27.056H117.863V26.36C117.863 24.992 117.287 24.296 116.159 24.296C115.031 24.296 114.455 24.992 114.455 26.36V31.544C114.455 32.936 115.031 33.632 116.159 33.632C117.287 33.632 117.863 32.936 117.863 31.544V30.608H119.615V31.376C119.615 33.848 118.439 35.24 116.159 35.24ZM126.224 22.928V24.464H124.04V32.288C124.04 33.248 124.352 33.632 125.216 33.632C125.576 33.632 125.912 33.56 126.224 33.44V35C125.864 35.168 125.408 35.24 124.88 35.24C123.104 35.24 122.216 34.328 122.216 32.48V24.464H120.728V22.928H122.288L122.48 19.448H124.04V22.928H126.224ZM129.647 21.2H127.847V18.608H129.647V21.2ZM129.647 35H127.847V22.928H129.647V35ZM135.261 35.24C132.957 35.24 131.709 33.824 131.709 31.328V26.576C131.709 24.08 132.957 22.688 135.261 22.688C137.541 22.688 138.813 24.08 138.813 26.576V31.328C138.813 33.824 137.541 35.24 135.261 35.24ZM135.261 33.632C136.413 33.632 136.989 32.912 136.989 31.496V26.408C136.989 24.992 136.413 24.296 135.261 24.296C134.085 24.296 133.509 24.992 133.509 26.408V31.496C133.509 32.912 134.085 33.632 135.261 33.632ZM145.103 22.688C146.951 22.688 147.887 23.84 147.887 26.168V35H146.063V26.408C146.063 24.992 145.559 24.296 144.551 24.296C143.423 24.296 142.655 25.256 142.655 26.984V35H140.855V22.928H142.415L142.439 24.512C142.943 23.288 143.831 22.688 145.103 22.688Z" fill="#44566C"/>
<rect x="1" y="1" width="60" height="60" rx="21" stroke="#259F83" stroke-width="1.5"/>
<path d="M38.8932 42.1676L38.9281 42.1471L38.9592 42.1212L40.4632 40.8703L41.9475 39.7303C42.3795 40.22 42.6725 40.6674 42.8533 41.0647C43.118 41.6464 43.1281 42.0871 43.029 42.3963C42.9314 42.7011 42.7069 42.945 42.3643 43.1023C41.5652 43.4694 40.108 43.3028 38.8377 42.2002C38.8562 42.1893 38.8747 42.1785 38.8932 42.1676ZM30.5001 40.375C32.6171 40.375 34.3184 40.1601 35.8595 38.9925C36.1794 40.1765 36.6652 41.1512 37.2456 41.9273C35.2612 42.9272 32.8261 43.75 30.6314 43.75C25.3024 43.75 21.0185 40.5883 18.0326 37.3486C16.5453 35.7349 15.3965 34.1191 14.6195 32.9061C14.2313 32.3001 13.9368 31.7959 13.7399 31.4446C13.6685 31.3171 13.6099 31.2097 13.5645 31.125C13.6099 31.0403 13.6685 30.9329 13.7399 30.8054C13.9368 30.4541 14.2313 29.9499 14.6195 29.3439C15.3965 28.1309 16.5453 26.5151 18.0326 24.9014C21.0185 21.6617 25.3024 18.5 30.6314 18.5C35.8254 18.5 40.0431 21.6575 42.9986 24.8994C44.4701 26.5134 45.611 28.1296 46.3842 29.3429C46.7705 29.9491 47.0641 30.4534 47.2606 30.8049C47.3304 30.9299 47.3879 31.0355 47.4329 31.1195C47.3667 31.2378 47.2747 31.3993 47.1581 31.5974C46.8926 32.0483 46.4998 32.6882 45.9924 33.4403C45.0359 34.8584 43.6782 36.6668 42.0064 38.357C41.1467 37.5447 39.9942 36.6835 38.501 35.7895C39.2962 34.4216 39.7501 32.8283 39.7501 31.125C39.7501 26.038 35.6341 21.875 30.5001 21.875C25.4115 21.875 21.2501 26.0364 21.2501 31.125C21.2501 36.259 25.4131 40.375 30.5001 40.375ZM26.6251 31.125C26.6251 28.9949 28.37 27.25 30.5001 27.25C30.5405 27.25 30.5806 27.2514 30.6204 27.2541C30.2418 27.6995 30.0001 28.276 30.0001 28.9375C30.0001 30.4386 31.1865 31.625 32.6876 31.625C33.3483 31.625 33.9241 31.3839 34.3693 31.0061C34.3731 31.0463 34.3751 31.0858 34.3751 31.125C34.3751 33.2551 32.6302 35 30.5001 35C28.37 35 26.6251 33.2551 26.6251 31.125Z" fill="#259F83" stroke="#259F83"/>
</svg>
