<svg width="60" height="19" viewBox="0 0 60 19" fill="none" xmlns="http://www.w3.org/2000/svg">
<path d="M19.7766 16.0966C19.3725 16.2822 18.5867 16.2248 17.8524 15.6779L18.729 14.9489L19.5548 14.3146C19.7659 14.5704 19.9124 14.8034 20.0065 15.0101C20.1649 15.3583 20.1603 15.5977 20.1128 15.7458C20.0668 15.8894 19.9603 16.0123 19.7766 16.0966ZM22.8672 8.37867C22.8908 8.42089 22.9122 8.45962 22.9314 8.49465C22.8958 8.5572 22.8529 8.6316 22.8028 8.71657C22.6325 9.00589 22.38 9.41724 22.0537 9.90093C21.4611 10.7795 20.6304 11.8889 19.6124 12.9379C19.0887 12.4625 18.419 11.9673 17.5854 11.4584C18.063 10.5807 18.3333 9.57278 18.3333 8.5C18.3333 5.10882 15.5894 2.33333 12.1667 2.33333C8.77386 2.33333 6 5.10719 6 8.5C6 11.9228 8.77549 14.6667 12.1667 14.6667C13.4608 14.6667 14.5489 14.5442 15.5378 13.8825C15.7237 14.4798 15.9765 14.9948 16.2731 15.4288C15.0395 16.0265 13.571 16.5 12.2517 16.5C8.87289 16.5 6.14224 14.4945 4.22203 12.4111C3.26751 11.3755 2.52967 10.3378 2.03043 9.55843C1.78113 9.16924 1.59215 8.84574 1.46616 8.62085C1.4414 8.57666 1.41909 8.53629 1.39923 8.5C1.41909 8.4637 1.4414 8.42334 1.46616 8.37915C1.59215 8.15426 1.78113 7.83077 2.03043 7.44157C2.52967 6.66219 3.26751 5.62451 4.22203 4.58886C6.14224 2.50546 8.87289 0.5 12.2517 0.5C15.5418 0.5 18.2293 2.50124 20.1307 4.58686C21.0751 5.62278 21.808 6.66082 22.3049 7.44057C22.553 7.82995 22.7415 8.15362 22.8672 8.37867ZM9.83333 8.5C9.83333 7.30806 10.7417 6.31579 11.8996 6.182C11.7534 6.44369 11.6667 6.74792 11.6667 7.08333C11.6667 8.15281 12.5139 9 13.5833 9C13.9187 9 14.223 8.91326 14.4847 8.76704C14.3509 9.92496 13.3586 10.8333 12.1667 10.8333C10.8845 10.8333 9.83333 9.78219 9.83333 8.5Z" fill="#259F83" stroke="#259F83"/>
<path d="M29.114 15H27.574V5.2H29.114V15ZM33.0114 7.72C34.0754 7.72 34.6074 8.42 34.6074 9.806V15H33.1234V9.974C33.1234 9.344 32.9134 9.036 32.5074 9.036C32.0034 9.036 31.7514 9.414 31.7514 10.184V15H30.2674V7.86H31.5554L31.5834 8.686C31.8494 8.042 32.3254 7.72 33.0114 7.72ZM37.5848 15.14C36.2268 15.14 35.4288 14.342 35.4288 12.956V12.732H36.8568V12.998C36.8568 13.572 37.0808 13.866 37.5148 13.866C37.9488 13.866 38.1588 13.614 38.1588 13.096C38.1588 12.928 38.1028 12.774 37.9908 12.634C37.7808 12.34 37.6128 12.242 37.1228 11.962C36.8568 11.808 36.6608 11.696 36.5348 11.598C36.4088 11.5 36.2408 11.374 36.0448 11.192C35.6668 10.814 35.4988 10.324 35.4988 9.694C35.4988 8.476 36.2128 7.72 37.5008 7.72C38.7328 7.72 39.5028 8.518 39.5028 9.806V9.96H38.1028V9.764C38.1028 9.246 37.9068 8.994 37.5148 8.994C37.1368 8.994 36.9408 9.218 36.9408 9.666C36.9408 10.184 37.3048 10.492 38.0328 10.884C38.5368 11.164 38.7468 11.29 39.0968 11.64C39.4748 11.99 39.6288 12.466 39.6288 13.068C39.6288 14.356 38.9148 15.14 37.5848 15.14ZM43.2379 7.72C44.3159 7.72 44.8619 8.42 44.8619 9.806V13.054C44.8619 14.44 44.3159 15.14 43.2379 15.14C42.7059 15.14 42.2859 14.916 41.9779 14.482V17.17H40.4939V7.86H41.7819L41.8099 8.7C42.0759 8.042 42.5519 7.72 43.2379 7.72ZM43.3779 12.956V9.904C43.3779 9.33 43.1679 9.036 42.7479 9.036C42.2299 9.036 41.9779 9.414 41.9779 10.184V12.676C41.9779 13.446 42.2299 13.824 42.7479 13.824C43.1679 13.824 43.3779 13.53 43.3779 12.956ZM50.164 10.044V11.752H47.252V12.956C47.252 13.53 47.504 13.824 47.994 13.824C48.484 13.824 48.736 13.53 48.736 12.956V12.69H50.164V12.816C50.164 14.314 49.38 15.14 47.966 15.14C46.552 15.14 45.768 14.314 45.768 12.816V10.044C45.768 8.546 46.552 7.72 47.966 7.72C49.38 7.72 50.164 8.546 50.164 10.044ZM47.252 9.904V10.576H48.708V9.904C48.708 9.33 48.47 9.036 47.98 9.036C47.49 9.036 47.252 9.33 47.252 9.904ZM51.0317 12.844V10.016C51.0317 8.546 51.8017 7.72 53.2017 7.72C54.6017 7.72 55.3157 8.574 55.3157 10.016V10.45H53.8877V9.876C53.8877 9.316 53.6637 9.036 53.2017 9.036C52.7397 9.036 52.5157 9.316 52.5157 9.876V12.984C52.5157 13.544 52.7397 13.824 53.2017 13.824C53.6637 13.824 53.8877 13.544 53.8877 12.984V12.27H55.3157V12.844C55.3157 14.286 54.6017 15.14 53.2017 15.14C51.8017 15.14 51.0317 14.314 51.0317 12.844ZM59.2119 7.86V9.12H58.1339V13.208C58.1339 13.656 58.3019 13.824 58.7079 13.824C58.8619 13.824 59.0299 13.796 59.2119 13.74V15C58.9739 15.098 58.6939 15.14 58.3999 15.14C57.2379 15.14 56.6499 14.566 56.6499 13.404V9.12H55.8379V7.86H56.7199L56.8599 5.928H58.1339V7.86H59.2119Z" fill="#259F83"/>
</svg>
