<svg width="56" height="27" viewBox="0 0 56 27" fill="none" xmlns="http://www.w3.org/2000/svg">
<path d="M11.8065 12.4689L11.8033 13.4689H11.8064L11.8065 12.4689ZM8.47982 11.4929L7.93892 12.334H7.93892L8.47982 11.4929ZM17.8234 6.73828L18.8234 6.74246L18.8234 6.73897L17.8234 6.73828ZM16.8161 3.55327L15.9958 4.12522L15.9958 4.12522L16.8161 3.55327ZM14.1288 1.43939L14.4983 0.510138L14.4983 0.510137L14.1288 1.43939ZM10.6664 1.10835L10.4811 0.125663L10.4811 0.125663L10.6664 1.10835ZM7.59456 2.6714L8.28422 3.39553L8.28423 3.39553L7.59456 2.6714ZM5.94758 5.60253L4.96903 5.39649L4.96903 5.39649L5.94758 5.60253ZM6.27996 8.91472L5.36126 9.30967H5.36126L6.27996 8.91472ZM11.8097 11.4689C10.8122 11.4657 9.84164 11.1797 9.02073 10.6518L7.93892 12.334C9.08527 13.0712 10.4299 13.4645 11.8033 13.4689L11.8097 11.4689ZM15.363 10.0676C14.4257 10.9603 13.1476 11.4689 11.8065 11.4689L11.8064 13.4689C13.6486 13.4689 15.4241 12.7713 16.7423 11.5159L15.363 10.0676ZM16.8235 6.73409C16.8183 7.97678 16.2987 9.1764 15.363 10.0676L16.7423 11.5159C18.0619 10.259 18.8159 8.54371 18.8234 6.74246L16.8235 6.73409ZM15.9958 4.12522C16.5381 4.90291 16.8241 5.81195 16.8234 6.73758L18.8234 6.73897C18.8244 5.39758 18.4093 4.08985 17.6364 2.98132L15.9958 4.12522ZM13.7594 2.36864C14.6766 2.73332 15.4531 3.34692 15.9958 4.12522L17.6364 2.98132C16.8639 1.8734 15.7701 1.0158 14.4983 0.510138L13.7594 2.36864ZM10.8517 2.09103C11.8294 1.90668 12.8419 2.00385 13.7594 2.36864L14.4983 0.510137C13.2267 0.00457937 11.8294 -0.128549 10.4811 0.125663L10.8517 2.09103ZM8.28423 3.39553C8.98141 2.73153 9.8741 2.27536 10.8517 2.09103L10.4811 0.125663C9.13273 0.379902 7.88747 1.01146 6.9049 1.94727L8.28423 3.39553ZM6.92612 5.80858C7.11748 4.89975 7.58749 4.0591 8.28422 3.39553L6.9049 1.94727C5.92187 2.88351 5.24563 4.08289 4.96903 5.39649L6.92612 5.80858ZM7.19866 8.51977C6.82895 7.65976 6.73484 6.71702 6.92612 5.80858L4.96903 5.39649C4.69236 6.71047 4.82957 8.0729 5.36126 9.30967L7.19866 8.51977ZM9.02073 10.6518C8.20025 10.1242 7.56864 9.38038 7.19866 8.51977L5.36126 9.30967C5.89268 10.5458 6.79213 11.5965 7.93892 12.334L9.02073 10.6518Z" fill="#259F83"/>
<path fill-rule="evenodd" clip-rule="evenodd" d="M11.998 14.588C9.08112 14.588 6.28376 15.4743 4.22124 17.0518C2.15871 18.6294 1 20.769 1 23H2.65251C2.65251 21.1042 3.63709 19.2861 5.38971 17.9456C7.14233 16.6051 9.51939 15.852 11.998 15.852C14.4765 15.852 16.8536 16.6051 18.6062 17.9456C20.3588 19.2861 21.3435 21.1042 21.3435 23H23C23 21.895 22.7154 20.8009 22.1624 19.7801C21.6095 18.7593 20.799 17.8319 19.7773 17.0507C18.7557 16.2696 17.5428 15.65 16.208 15.2275C14.8732 14.8049 13.4426 14.5876 11.998 14.588Z" fill="#259F83" stroke="#259F83" stroke-width="0.5"/>
<path d="M29.114 23H27.574V13.2H29.842C31.368 13.2 32.138 14.012 32.138 15.622V16.588C32.138 18.198 31.368 19.01 29.842 19.01H29.114V23ZM29.114 14.6V17.61H29.842C30.346 17.61 30.598 17.358 30.598 16.686V15.524C30.598 14.852 30.346 14.6 29.842 14.6H29.114ZM35.6627 15.72C35.8307 15.72 35.9707 15.748 36.0827 15.804V17.246C35.9707 17.218 35.8447 17.204 35.7047 17.204C34.8647 17.204 34.4447 17.764 34.4447 18.884V23H32.9607V15.86H34.2487L34.2767 17.064C34.4727 16.168 34.9347 15.72 35.6627 15.72ZM36.6078 20.816V18.044C36.6078 16.546 37.3918 15.72 38.7918 15.72C40.1918 15.72 40.9758 16.546 40.9758 18.044V20.816C40.9758 22.314 40.1918 23.14 38.7918 23.14C37.3918 23.14 36.6078 22.314 36.6078 20.816ZM39.4918 20.956V17.904C39.4918 17.33 39.2538 17.036 38.7918 17.036C38.3298 17.036 38.0918 17.33 38.0918 17.904V20.956C38.0918 21.53 38.3298 21.824 38.7918 21.824C39.2538 21.824 39.4918 21.53 39.4918 20.956ZM42.4042 15.86V14.796C42.4042 13.634 42.9922 13.06 44.1542 13.06C44.4482 13.06 44.7282 13.102 44.9662 13.2V14.46C44.7842 14.404 44.6162 14.376 44.4622 14.376C44.0562 14.376 43.8882 14.544 43.8882 14.992V15.86H44.9662V17.12H43.8882V23H42.4042V17.12H41.5922V15.86H42.4042ZM45.6942 14.978V13.354H47.1782V14.978H45.6942ZM47.1782 23H45.6942V15.86H47.1782V23ZM49.8119 23H48.3279V13.2H49.8119V23ZM55.2226 18.044V19.752H52.3106V20.956C52.3106 21.53 52.5626 21.824 53.0526 21.824C53.5426 21.824 53.7946 21.53 53.7946 20.956V20.69H55.2226V20.816C55.2226 22.314 54.4386 23.14 53.0246 23.14C51.6106 23.14 50.8266 22.314 50.8266 20.816V18.044C50.8266 16.546 51.6106 15.72 53.0246 15.72C54.4386 15.72 55.2226 16.546 55.2226 18.044ZM52.3106 17.904V18.576H53.7666V17.904C53.7666 17.33 53.5286 17.036 53.0386 17.036C52.5486 17.036 52.3106 17.33 52.3106 17.904Z" fill="#259F83"/>
</svg>
