<svg width="56" height="27" viewBox="0 0 56 27" fill="none" xmlns="http://www.w3.org/2000/svg">
<path fill-rule="evenodd" clip-rule="evenodd" d="M20.6875 20.9342L13.5705 13.6588C14.8708 12.2784 15.6028 10.4397 15.6151 8.52296C15.6275 6.60622 14.9193 4.75787 13.6369 3.36001C12.3545 1.96215 10.596 1.12163 8.72485 1.0122C6.85369 0.90277 5.01293 1.53276 3.5831 2.772C2.15326 4.01125 1.24368 5.76501 1.04232 7.67071C0.84096 9.57641 1.36323 11.4883 2.5012 13.0114C3.63917 14.5344 5.30581 15.5521 7.15663 15.854C9.00746 16.1559 10.901 15.719 12.4457 14.6336L19.6485 22L20.6875 20.9342ZM2.52323 8.47592C2.52323 7.29919 2.86443 6.14892 3.50367 5.17051C4.1429 4.19209 5.05148 3.42946 6.11449 2.97914C7.1775 2.52882 8.34719 2.41106 9.47568 2.64063C10.6042 2.8702 11.6407 3.43683 12.4543 4.26891C13.2679 5.10098 13.822 6.1611 14.0465 7.31523C14.271 8.46935 14.1557 9.66565 13.7154 10.7528C13.2751 11.84 12.5295 12.7692 11.5728 13.4229C10.6161 14.0767 9.49133 14.4256 8.34073 14.4256C6.79834 14.4239 5.31961 13.7965 4.22898 12.6811C3.13835 11.5657 2.52491 10.0533 2.52323 8.47592Z" fill="#259F83"/>
<path d="M20.6875 20.9342L20.8665 21.1087L21.0369 20.9339L20.8662 20.7594L20.6875 20.9342ZM13.5705 13.6588L13.3885 13.4874L13.224 13.6621L13.3918 13.8336L13.5705 13.6588ZM15.6151 8.52296L15.8651 8.52458L15.6151 8.52296ZM13.6369 3.36001L13.8211 3.191V3.191L13.6369 3.36001ZM8.72485 1.0122L8.71026 1.26177L8.72485 1.0122ZM3.5831 2.772L3.74683 2.96092L3.5831 2.772ZM1.04232 7.67071L0.793702 7.64444L1.04232 7.67071ZM2.5012 13.0114L2.30093 13.161H2.30093L2.5012 13.0114ZM7.15663 15.854L7.19688 15.6072L7.15663 15.854ZM12.4457 14.6336L12.6245 14.4588L12.4759 14.3069L12.302 14.4291L12.4457 14.6336ZM19.6485 22L19.4698 22.1748L19.6488 22.3579L19.8276 22.1745L19.6485 22ZM2.52323 8.47592H2.27323L2.27323 8.47619L2.52323 8.47592ZM3.50367 5.17051L3.29438 5.03377L3.50367 5.17051ZM6.11449 2.97914L6.21201 3.20934L6.11449 2.97914ZM9.47568 2.64063L9.42585 2.88561V2.88561L9.47568 2.64063ZM12.4543 4.26891L12.6331 4.09413L12.4543 4.26891ZM14.0465 7.31523L14.2919 7.2675V7.2675L14.0465 7.31523ZM13.7154 10.7528L13.9471 10.8467L13.7154 10.7528ZM11.5728 13.4229L11.4317 13.2165V13.2165L11.5728 13.4229ZM8.34073 14.4256L8.34045 14.6756H8.34073V14.4256ZM4.22898 12.6811L4.05023 12.8559L4.22898 12.6811ZM20.8662 20.7594L13.7492 13.484L13.3918 13.8336L20.5088 21.109L20.8662 20.7594ZM13.7525 13.8302C15.0966 12.4032 15.8524 10.5037 15.8651 8.52458L15.3651 8.52135C15.3532 10.3757 14.645 12.1535 13.3885 13.4874L13.7525 13.8302ZM15.8651 8.52458C15.8779 6.54543 15.1467 4.63593 13.8211 3.191L13.4527 3.52901C14.6919 4.87981 15.3771 6.66701 15.3651 8.52135L15.8651 8.52458ZM13.8211 3.191C12.4954 1.74591 10.6763 0.875898 8.73945 0.762626L8.71026 1.26177C10.5157 1.36736 12.2136 2.17838 13.4527 3.52901L13.8211 3.191ZM8.73945 0.762626C6.80252 0.649351 4.89794 1.30159 3.41936 2.58309L3.74683 2.96092C5.12792 1.76392 6.90486 1.15619 8.71026 1.26177L8.73945 0.762626ZM3.41936 2.58309C1.94097 3.86442 1.00162 5.67663 0.793702 7.64444L1.29093 7.69698C1.48573 5.8534 2.36556 4.15808 3.74683 2.96092L3.41936 2.58309ZM0.793702 7.64444C0.585784 9.61222 1.12493 11.5871 2.30093 13.161L2.70147 12.8617C1.60153 11.3896 1.09614 9.5406 1.29093 7.69698L0.793702 7.64444ZM2.30093 13.161C3.47705 14.7351 5.20068 15.7882 7.11639 16.1007L7.19688 15.6072C5.41094 15.3159 3.80128 14.3337 2.70147 12.8617L2.30093 13.161ZM7.11639 16.1007C9.03217 16.4132 10.9916 15.9609 12.5895 14.8382L12.302 14.4291C10.8103 15.4772 8.98274 15.8985 7.19688 15.6072L7.11639 16.1007ZM12.267 14.8084L19.4698 22.1748L19.8273 21.8252L12.6245 14.4588L12.267 14.8084ZM19.8276 22.1745L20.8665 21.1087L20.5085 20.7597L19.4695 21.8255L19.8276 22.1745ZM2.77323 8.47592C2.77323 7.3474 3.10048 6.24471 3.71296 5.30724L3.29438 5.03377C2.62838 6.05314 2.27323 7.25097 2.27323 8.47592H2.77323ZM3.71296 5.30724C4.3254 4.36983 5.19531 3.64003 6.21201 3.20934L6.01697 2.74894C4.90765 3.21888 3.9604 4.01434 3.29438 5.03377L3.71296 5.30724ZM6.21201 3.20934C7.22864 2.77867 8.34696 2.66614 9.42585 2.88561L9.52552 2.39565C8.34743 2.15599 7.12637 2.27898 6.01697 2.74894L6.21201 3.20934ZM9.42585 2.88561C10.5048 3.1051 11.4966 3.64698 12.2756 4.44369L12.6331 4.09413C11.7849 3.22668 10.7036 2.6353 9.52552 2.39565L9.42585 2.88561ZM12.2756 4.44369C13.0547 5.24045 13.5858 6.25626 13.8011 7.36296L14.2919 7.2675C14.0582 6.06595 13.4812 4.96151 12.6331 4.09413L12.2756 4.44369ZM13.8011 7.36296C14.0163 8.46968 13.9058 9.61679 13.4837 10.659L13.9471 10.8467C14.4057 9.71451 14.5256 8.46902 14.2919 7.2675L13.8011 7.36296ZM13.4837 10.659C13.0616 11.7011 12.3472 12.5909 11.4317 13.2165L11.7138 13.6294C12.7117 12.9475 13.4886 11.9789 13.9471 10.8467L13.4837 10.659ZM11.4317 13.2165C10.5163 13.8421 9.44062 14.1756 8.34073 14.1756V14.6756C9.54203 14.6756 10.7159 14.3113 11.7138 13.6294L11.4317 13.2165ZM8.34101 14.1756C6.86666 14.174 5.452 13.5743 4.40773 12.5063L4.05023 12.8559C5.18722 14.0187 6.73003 14.6738 8.34045 14.6756L8.34101 14.1756ZM4.40773 12.5063C3.36328 11.4382 2.77484 9.98866 2.77323 8.47566L2.27323 8.47619C2.27498 10.118 2.91342 11.6933 4.05023 12.8559L4.40773 12.5063Z" fill="#259F83"/>
<path d="M28.576 23.14C27.078 23.14 26.308 22.258 26.308 20.676V20.116H27.764V20.788C27.764 21.418 28.03 21.74 28.562 21.74C29.108 21.74 29.374 21.418 29.374 20.76C29.374 20.354 29.276 20.004 29.08 19.696C28.898 19.388 28.548 19.01 28.03 18.562C27.4 18.002 26.952 17.498 26.686 17.036C26.434 16.574 26.308 16.07 26.308 15.496C26.308 13.942 27.106 13.06 28.604 13.06C30.074 13.06 30.844 13.942 30.844 15.524V15.93H29.388V15.426C29.388 14.782 29.136 14.46 28.618 14.46C28.1 14.46 27.834 14.768 27.834 15.398C27.834 15.748 27.932 16.084 28.128 16.378C28.324 16.672 28.674 17.05 29.192 17.498C29.836 18.058 30.284 18.576 30.522 19.038C30.774 19.5 30.9 20.032 30.9 20.648C30.9 22.258 30.088 23.14 28.576 23.14ZM36.0253 18.044V19.752H33.1133V20.956C33.1133 21.53 33.3653 21.824 33.8553 21.824C34.3453 21.824 34.5973 21.53 34.5973 20.956V20.69H36.0253V20.816C36.0253 22.314 35.2413 23.14 33.8273 23.14C32.4133 23.14 31.6293 22.314 31.6293 20.816V18.044C31.6293 16.546 32.4133 15.72 33.8273 15.72C35.2413 15.72 36.0253 16.546 36.0253 18.044ZM33.1133 17.904V18.576H34.5693V17.904C34.5693 17.33 34.3313 17.036 33.8413 17.036C33.3513 17.036 33.1133 17.33 33.1133 17.904ZM41.2476 23H39.8896C39.8196 22.874 39.7916 22.594 39.7776 22.16C39.4976 22.818 38.9936 23.14 38.2656 23.14C37.3136 23.14 36.7116 22.454 36.7116 21.348C36.7116 20.228 37.1876 19.584 38.4336 18.968C38.9516 18.716 39.2736 18.534 39.3996 18.422C39.5256 18.296 39.5956 18.142 39.5956 17.946V17.806C39.5956 17.26 39.3996 16.994 38.9936 16.994C38.5456 16.994 38.3216 17.274 38.3216 17.82V18.086H36.9216V17.904C36.9216 16.504 37.6496 15.72 39.0076 15.72C40.4636 15.72 41.0796 16.462 41.0796 18.072V20.942C41.0796 21.852 41.1356 22.538 41.2476 23ZM38.8256 21.866C39.3436 21.866 39.5956 21.474 39.5956 20.676V19.458C39.5256 19.542 39.2736 19.724 38.8676 19.99C38.4196 20.27 38.1956 20.634 38.1956 21.096C38.1956 21.614 38.4056 21.866 38.8256 21.866ZM44.9166 15.72C45.0846 15.72 45.2246 15.748 45.3366 15.804V17.246C45.2246 17.218 45.0986 17.204 44.9586 17.204C44.1186 17.204 43.6986 17.764 43.6986 18.884V23H42.2146V15.86H43.5026L43.5306 17.064C43.7266 16.168 44.1886 15.72 44.9166 15.72ZM45.8617 20.844V18.016C45.8617 16.546 46.6317 15.72 48.0317 15.72C49.4317 15.72 50.1457 16.574 50.1457 18.016V18.45H48.7177V17.876C48.7177 17.316 48.4937 17.036 48.0317 17.036C47.5697 17.036 47.3457 17.316 47.3457 17.876V20.984C47.3457 21.544 47.5697 21.824 48.0317 21.824C48.4937 21.824 48.7177 21.544 48.7177 20.984V20.27H50.1457V20.844C50.1457 22.286 49.4317 23.14 48.0317 23.14C46.6317 23.14 45.8617 22.314 45.8617 20.844ZM53.818 15.72C54.882 15.72 55.414 16.42 55.414 17.806V23H53.93V17.974C53.93 17.344 53.72 17.036 53.314 17.036C52.81 17.036 52.558 17.414 52.558 18.184V23H51.074V13.2H52.558V16.364C52.852 15.93 53.272 15.72 53.818 15.72Z" fill="#259F83"/>
</svg>
