<svg width="167" height="62" viewBox="0 0 167 62" fill="none" xmlns="http://www.w3.org/2000/svg">
<path d="M20.5144 17.9197H42.6154" stroke="#259F83" stroke-width="3" stroke-linecap="round"/>
<path d="M13 17.9198C13 16.8447 13.8447 16 14.9198 16C15.9949 16 16.8397 16.8447 16.8397 17.9198C16.8397 18.9949 15.9949 19.8397 14.9198 19.8397C13.8447 19.8397 13 18.9949 13 17.9198Z" fill="#259F83"/>
<path d="M20.5144 24.9922H42.6154" stroke="#259F83" stroke-width="3" stroke-linecap="round"/>
<path d="M13 24.9921C13 23.917 13.8447 23.0723 14.9198 23.0723C15.9949 23.0723 16.8397 23.917 16.8397 24.9921C16.8397 26.0672 15.9949 26.9119 14.9198 26.9119C13.8447 26.9119 13 26.0672 13 24.9921Z" fill="#259F83"/>
<path d="M20.5144 32.0645H42.6154" stroke="#259F83" stroke-width="3" stroke-linecap="round"/>
<path d="M13 32.0646C13 30.9895 13.8447 30.1448 14.9198 30.1448C15.9949 30.1448 16.8397 30.9895 16.8397 32.0646C16.8397 33.1397 15.9949 33.9844 14.9198 33.9844C13.8447 33.9844 13 33.1397 13 32.0646Z" fill="#259F83"/>
<path d="M20.5144 39.1367H42.6154" stroke="#259F83" stroke-width="3" stroke-linecap="round"/>
<path d="M13 39.1369C13 38.0618 13.8447 37.217 14.9198 37.217C15.9949 37.217 16.8397 38.0618 16.8397 39.1369C16.8397 40.212 15.9949 41.0567 14.9198 41.0567C13.8447 41.0567 13 40.212 13 39.1369Z" fill="#259F83"/>
<ellipse cx="36.2214" cy="33.8366" rx="7.06731" ry="7.06731" fill="white" fill-opacity="0.5"/>
<path d="M36.5627 25.5981H36.6249L36.6497 25.5733C41.3661 25.6067 45.1926 29.4538 45.1926 34.178C45.1926 35.6504 44.7754 37.0516 44.1106 38.2579L44.0435 38.3797L44.1599 38.4558C44.2955 38.5445 44.4216 38.6469 44.5361 38.7615L44.5362 38.7615L47.0376 41.2629L47.0374 41.2631L47.044 41.269C47.2886 41.4864 47.4862 41.7515 47.6247 42.048C47.7631 42.3445 47.8395 42.6662 47.8491 42.9933C47.8588 43.3204 47.8014 43.6461 47.6807 43.9502C47.5599 44.2544 47.3782 44.5306 47.1468 44.762C46.9154 44.9935 46.6391 45.1751 46.335 45.2959C46.0308 45.4167 45.7052 45.474 45.3781 45.4644C45.051 45.4547 44.7293 45.3783 44.4328 45.2399C44.1362 45.1014 43.8711 44.9038 43.6537 44.6592L43.6539 44.659L43.6477 44.6528L41.1463 42.1514L41.1467 42.151L41.1361 42.1421C41.025 42.0498 40.9227 41.9475 40.8304 41.8364L40.7512 41.7411L40.6427 41.8009C39.4411 42.463 38.0156 42.8079 36.5627 42.8079C31.8179 42.8079 27.9579 38.9478 27.9579 34.203C27.9579 29.4581 31.8179 25.5981 36.5627 25.5981ZM36.5627 27.7995H36.5006L36.4753 27.8248C32.9448 27.8578 30.1342 30.6891 30.1342 34.228C30.1342 37.7878 32.9779 40.6315 36.5377 40.6315C38.1988 40.6315 39.7362 40.0436 40.866 39.0166L40.8737 39.0095L40.8804 39.0015C40.9727 38.8904 41.0751 38.7881 41.1861 38.6958L41.1865 38.6963L41.1963 38.6865L41.2338 38.649L41.2714 38.6114L41.2714 38.6115L41.275 38.6077C42.3525 37.4533 42.9662 35.8904 42.9662 34.203C42.9662 30.6432 40.1225 27.7995 36.5627 27.7995Z" fill="#259F83" stroke="white" stroke-width="0.3"/>
<path d="M35.2727 17.5908H41.6363" stroke="white" stroke-width="1.1" stroke-linecap="round"/>
<path d="M35.2727 24.4319H41.6363" stroke="white" stroke-width="1.1" stroke-linecap="round"/>
<path d="M76.3615 35H74.4895V19.904H71.5135V18.2H79.3375V19.904H76.3615V35ZM83.838 22.688C84.174 22.688 84.438 22.736 84.63 22.832V24.608C84.414 24.536 84.174 24.488 83.886 24.488C82.326 24.488 81.534 25.64 81.534 27.968V35H79.734V22.928H81.294L81.318 24.92C81.726 23.432 82.566 22.688 83.838 22.688ZM92.7141 35H91.0581C90.9861 34.736 90.9141 34.208 90.8661 33.368C90.3621 34.616 89.4261 35.24 88.0581 35.24C86.4021 35.24 85.3701 34.088 85.3701 32.264C85.3701 30.416 86.1861 29.336 88.3701 28.304C89.3781 27.848 90.0021 27.512 90.2661 27.296C90.5301 27.08 90.6501 26.744 90.6501 26.336V26.048C90.6501 24.848 90.1221 24.248 89.0901 24.248C88.0341 24.248 87.4101 24.92 87.4101 26.096V26.456H85.7061V26.192C85.7061 23.96 86.9301 22.688 89.1141 22.688C91.3461 22.688 92.4501 23.912 92.4501 26.336V31.712C92.4501 33.176 92.5461 34.256 92.7141 35ZM88.6821 33.656C89.9061 33.656 90.6501 32.648 90.6501 30.92V28.496C90.4581 28.76 89.8821 29.12 88.8981 29.624C87.7701 30.2 87.1941 30.992 87.1941 32C87.1941 33.104 87.6981 33.656 88.6821 33.656ZM97.9986 35.24C95.6946 35.24 94.4706 33.872 94.4706 31.376V26.528C94.4706 24.032 95.6946 22.688 97.9986 22.688C100.279 22.688 101.455 24.104 101.455 26.528V27.056H99.7026V26.36C99.7026 24.992 99.1266 24.296 97.9986 24.296C96.8706 24.296 96.2946 24.992 96.2946 26.36V31.544C96.2946 32.936 96.8706 33.632 97.9986 33.632C99.1266 33.632 99.7026 32.936 99.7026 31.544V30.608H101.455V31.376C101.455 33.848 100.279 35.24 97.9986 35.24ZM110.992 35H109.024L106.6 29.24L105.136 31.424V35H103.336V18.2H105.136V28.808L108.904 22.928H110.848L107.8 27.44L110.992 35ZM118.309 35H116.437V18.2H120.109C122.773 18.2 123.901 19.4 123.901 22.016V23.048C123.901 24.896 123.253 26.024 121.957 26.432V26.456C123.277 26.792 123.925 27.968 123.925 29.96V32.96C123.925 33.872 123.997 34.544 124.165 35H122.269C122.125 34.52 122.053 33.848 122.053 32.96V29.864C122.053 28.064 121.429 27.416 119.821 27.416H118.309V35ZM118.309 19.904V25.712H119.821C121.333 25.712 122.029 25.04 122.029 23.408V22.208C122.029 20.576 121.477 19.904 120.061 19.904H118.309ZM129.453 22.688C131.757 22.688 133.029 24.08 133.029 26.576V29.24H127.701V31.496C127.701 32.912 128.301 33.632 129.477 33.632C130.677 33.632 131.277 32.912 131.277 31.496V31.136H133.029V31.328C133.029 33.824 131.757 35.24 129.453 35.24C127.149 35.24 125.877 33.824 125.877 31.328V26.576C125.877 24.08 127.125 22.688 129.453 22.688ZM127.701 26.408V27.752H131.253V26.408C131.253 24.992 130.653 24.296 129.453 24.296C128.277 24.296 127.701 24.992 127.701 26.408ZM138.335 35.24C136.031 35.24 134.807 33.872 134.807 31.376V26.528C134.807 24.032 136.031 22.688 138.335 22.688C140.615 22.688 141.791 24.104 141.791 26.528V27.056H140.039V26.36C140.039 24.992 139.463 24.296 138.335 24.296C137.207 24.296 136.631 24.992 136.631 26.36V31.544C136.631 32.936 137.207 33.632 138.335 33.632C139.463 33.632 140.039 32.936 140.039 31.544V30.608H141.791V31.376C141.791 33.848 140.615 35.24 138.335 35.24ZM147.03 35.24C144.726 35.24 143.478 33.824 143.478 31.328V26.576C143.478 24.08 144.726 22.688 147.03 22.688C149.31 22.688 150.582 24.08 150.582 26.576V31.328C150.582 33.824 149.31 35.24 147.03 35.24ZM147.03 33.632C148.182 33.632 148.758 32.912 148.758 31.496V26.408C148.758 24.992 148.182 24.296 147.03 24.296C145.854 24.296 145.278 24.992 145.278 26.408V31.496C145.278 32.912 145.854 33.632 147.03 33.632ZM156.729 22.688C157.065 22.688 157.329 22.736 157.521 22.832V24.608C157.305 24.536 157.065 24.488 156.777 24.488C155.217 24.488 154.425 25.64 154.425 27.968V35H152.625V22.928H154.185L154.209 24.92C154.617 23.432 155.457 22.688 156.729 22.688ZM166.012 35H164.356C164.26 34.712 164.188 34.16 164.164 33.368C163.636 34.616 162.724 35.24 161.452 35.24C159.58 35.24 158.644 34.064 158.644 31.736V26.168C158.644 23.84 159.58 22.688 161.452 22.688C162.556 22.688 163.396 23.168 163.948 24.128V18.2H165.748V31.712C165.748 33.176 165.844 34.256 166.012 35ZM162.004 33.632C163.156 33.632 163.948 32.672 163.948 30.944V26.984C163.948 25.256 163.156 24.296 162.004 24.296C160.972 24.296 160.468 24.968 160.468 26.312V31.592C160.468 32.96 160.972 33.632 162.004 33.632Z" fill="#44566C"/>
<rect x="1" y="1" width="60" height="60" rx="21" stroke="#259F83" stroke-width="1.5"/>
</svg>
